<svg width="156" height="19" fill="none" xmlns="http://www.w3.org/2000/svg"><path d="M76.684 8.564c3.172-1.738 2.644-6.043.227-7.176-1.285-.604-3.022-.302-4.683-.377v16.314c4.23.53 6.193-.15 7.024-2.492.83-2.417-.151-4.532-2.795-6.118M31.819 1.087c.075 4.079 0 8.157.302 12.16.302 3.928 1.964 4.76 4.758 4.532 1.964-.15 3.4-2.19 3.475-4.985.075-3.927 0-7.855 0-11.707M53.495 17.325C52.06 11.962 50.7 6.599 49.265 1.161h-.604L44.582 17.25M100.853 17.325c-1.36-5.363-2.795-10.801-4.155-16.164-.226 0-.453.076-.68.076-1.36 5.287-2.794 10.574-4.154 15.861M143.226 17.326c-1.133-2.72-2.266-5.439-3.474-8.158 3.021-1.284 4.003-2.719 3.474-5.212-.377-1.661-1.888-2.945-2.945-2.945h-4.004v16.24M14.367 1.087v16.24M10.215 1.087L5.607 17.175 1 1.087M117.926 1.54v15.785M131.218 1.087h-5.665v16.466h5.665M130.765 9.018h-4.834M121.549 1.087h-7.326M26.001 2.446c-2.115-1.813-4.38-1.813-5.74 0-1.51 2.114-.453 4.834 1.133 6.118 1.284 1.133 2.417 1.36 3.474 2.19 2.04 1.737 2.19 4.532.453 6.118-1.51 1.435-3.399 1.058-5.816-.529-.15-.075-.453-.302-.453-.302M111.201 2.446c-2.115-1.813-4.381-1.813-5.741 0-1.51 2.114-.453 4.834 1.133 6.118 1.284 1.133 2.417 1.36 3.475 2.19 2.039 1.737 2.19 4.532.453 6.118-1.511 1.435-3.399 1.058-5.816-.529-.151-.075-.453-.302-.453-.302M154.481 2.446c-2.115-1.813-4.381-1.813-5.74 0-1.511 2.114-.453 4.834 1.133 6.118 1.284 1.133 2.417 1.36 3.474 2.19 2.04 1.737 2.191 4.532.453 6.118-1.51 1.435-3.399 1.058-5.816-.529-.151-.075-.453-.302-.453-.302M57.8 1.086v16.24h5.363M84.539 1.086v16.24h5.287" stroke="#fff" stroke-width="1.116" stroke-miterlimit="10" stroke-linecap="round" stroke-linejoin="round"/></svg>
