<svg xmlns="http://www.w3.org/2000/svg" fill="none" viewBox="0 0 844 271"><rect width="840.98" height="268" x="1.5" y="1.5" fill="#fff" stroke="#090909" stroke-width="3" rx="25.5"/><path fill="#F90" d="M272.27 196.64C253.47 210.57 226.24 218 202.8 218c-32.89 0-62.49-12.22-84.88-32.55-1.76-1.62-.18-3.78 1.93-2.53 24.16 14.13 54.05 22.63 84.91 22.63a168.1 168.1 0 0 0 64.76-13.31c3.18-1.35 5.84 2.1 2.73 4.41"/><path fill="#F90" d="M280.08 187.66c-2.39-3.08-15.87-1.46-21.93-.73-1.84.22-2.14-1.4-.46-2.55 10.74-7.6 28.36-5.4 30.42-2.86 2.05 2.55-.54 20.32-10.63 28.8-1.55 1.3-3.03.6-2.34-1.12 2.27-5.7 7.35-18.44 4.94-21.54Z"/><mask id="path-4-inside-1_1_82" fill="#fff"><path d="M258.79 130.75v-7.3a1.84 1.84 0 0 1 1.14-1.75c.22-.09.47-.13.71-.12h32.68s1.9.68 1.97 1.78v6.31c-.08 1.08-.96 2.45-2.54 4.64l-17.05 24.5c6.34-.16 13.02.79 18.77 4.04 1.3.74 1.9 2.88 1.9 2.88v7.65c0 1.08-1.19 2.34-2.43 1.68-10.2-5.33-23.7-5.93-34.95.06-1.15.62-2.35-.62-2.35-1.7v-7.48c0-1.2 0-3.24 1.22-5.08l19.86-28.46h-17.24a1.82 1.82 0 0 1-1.9-1.86"/></mask><path fill="#090909" d="M258.79 130.75v-7.3a1.84 1.84 0 0 1 1.14-1.75c.22-.09.47-.13.71-.12h32.68s1.9.68 1.97 1.78v6.31c-.08 1.08-.96 2.45-2.54 4.64l-17.05 24.5c6.34-.16 13.02.79 18.77 4.04 1.3.74 1.9 2.88 1.9 2.88v7.65c0 1.08-1.19 2.34-2.43 1.68-10.2-5.33-23.7-5.93-34.95.06-1.15.62-2.35-.62-2.35-1.7v-7.48c0-1.2 0-3.24 1.22-5.08l19.86-28.46h-17.24a1.82 1.82 0 0 1-1.9-1.86"/><path fill="#090909" d="M258.79 123.44h.54v-.01l-.54.01Zm1.85-1.86-.01.54h.01v-.54Zm32.68 0 .19-.51-.1-.03h-.09v.54Zm1.97 1.78h.54v-.03l-.54.03Zm0 6.31.54.04v-.04h-.54Zm-2.54 4.64-.44-.31.44.31Zm-17.05 24.5-.44-.3-.6.87 1.06-.03-.02-.54Zm18.77 4.04.26-.47-.26.47Zm1.9 2.88h.54v-.08l-.02-.07-.52.15Zm-2.43 9.33.25-.47-.25.47Zm-34.95.06-.25-.48.25.48Zm-1.13-14.26-.44-.3h-.01l.45.3Zm19.86-28.46.44.3.6-.84h-1.04v.54Zm-17.24 0v-.54h-.02l.02.54Zm-1.15-1.65v-7.3h-1.08v7.3h1.08Zm0-7.32c0-.18.02-.35.09-.51l-1-.4c-.13.3-.18.62-.17.94l1.08-.03Zm.09-.51c.06-.16.16-.3.28-.43l-.77-.76c-.22.22-.4.5-.52.8l1 .39Zm.28-.43c.12-.12.27-.22.43-.28l-.4-1c-.3.11-.57.3-.8.52l.77.76Zm.43-.28c.16-.07.33-.1.5-.1l.03-1.07c-.32-.01-.64.04-.93.16l.4 1Zm.51-.1h32.68v-1.07h-32.68v1.08Zm32.68-.53-.18.5h.01l.06.03a3.93 3.93 0 0 1 .78.4c.22.14.42.3.56.46.14.16.2.3.2.43l1.08-.07a1.81 1.81 0 0 0-.46-1.06c-.24-.28-.53-.5-.8-.67a5.89 5.89 0 0 0-1.03-.52h-.03v-.01l-.19.5Zm1.44 1.78v6.31h1.07v-6.3h-1.07Zm0 6.27a4.2 4.2 0 0 1-.64 1.68c-.42.72-1.02 1.59-1.8 2.69l.87.63c.79-1.1 1.42-2.01 1.86-2.79.44-.77.73-1.47.78-2.13l-1.07-.08ZM292.3 134l-17.05 24.5.89.62 17.04-24.5-.88-.62Zm-16.6 25.35c6.29-.16 12.86.78 18.5 3.97l.52-.94c-5.86-3.32-12.65-4.27-19.04-4.1l.03 1.07Zm18.49 3.97c.5.29.92.89 1.22 1.49a7.2 7.2 0 0 1 .4.99l.02.06v.01l.53-.14.52-.15-.01-.03-.03-.08a10.4 10.4 0 0 0-.46-1.14 4.57 4.57 0 0 0-1.65-1.95l-.54.94Zm1.63 2.4v7.66h1.08v-7.65h-1.08Zm0 7.66c0 .36-.21.8-.55 1.07-.32.26-.7.34-1.1.14l-.5.95c.86.45 1.7.23 2.28-.25.56-.46.95-1.19.95-1.9h-1.08Zm-1.64 1.2c-10.35-5.4-24.04-6.02-35.45.06l.5.95c11.08-5.9 24.4-5.3 34.45-.05l.5-.95Zm-35.46.06c-.33.19-.68.12-1-.15a1.5 1.5 0 0 1-.55-1.07h-1.08c0 .72.4 1.45.94 1.9.57.47 1.4.72 2.2.27l-.5-.95Zm-1.55-1.22v-7.48h-1.08v7.48h1.08Zm0-7.48c0-1.2 0-3.09 1.13-4.78l-.9-.6c-1.32 2-1.31 4.18-1.31 5.38h1.08Zm1.12-4.77 19.87-28.46-.89-.62-19.86 28.46.88.62Zm19.42-29.31h-17.24v1.08h17.24v-1.08Zm-17.26 0c-.17 0-.35-.02-.51-.09l-.38 1.01c.3.12.62.17.94.16l-.05-1.08Zm-.51-.09a1.29 1.29 0 0 1-.44-.27l-.75.77c.23.22.5.4.8.51l.39-1Zm-.44-.27a1.3 1.3 0 0 1-.29-.44l-1 .42c.13.3.31.56.54.79l.75-.77Zm-.29-.44a1.3 1.3 0 0 1-.1-.5l-1.08-.02c0 .32.06.64.18.94l1-.41Z" mask="url(#path-4-inside-1_1_82)"/><mask id="path-6-inside-2_1_82" fill="#fff"><path d="M138.53 176.62h-9.98a1.9 1.9 0 0 1-1.83-1.7v-51.5a1.92 1.92 0 0 1 1.24-1.73c.24-.08.49-.12.74-.11h9.58a1.9 1.9 0 0 1 1.86 1.72v6.91h.18c2.43-6.56 6.98-9.61 13.17-9.61 6.25 0 10.16 3.05 12.97 9.61 2.42-6.56 7.92-9.61 13.81-9.61 4.2 0 8.78 1.75 11.57 5.67 3.17 4.37 2.52 10.7 2.52 16.27v32.74a1.92 1.92 0 0 1-1.2 1.75c-.22.09-.47.13-.72.13H182.2a1.89 1.89 0 0 1-1.78-1.87v-27.36c0-2.16.2-7.61-.28-9.68-.73-3.46-2.93-4.44-5.8-4.44a6.52 6.52 0 0 0-5.9 4.23c-1.02 2.6-.92 6.96-.92 9.9v27.35a1.9 1.9 0 0 1-1.18 1.73c-.23.1-.47.14-.72.14h-10.29a1.87 1.87 0 0 1-1.77-1.87v-27.36c0-5.76.93-14.23-6.07-14.23-7.08 0-6.8 8.26-6.8 14.23v27.03a1.9 1.9 0 0 1-1.2 1.73c-.23.1-.48.14-.73.13"/></mask><path fill="#090909" d="M138.53 176.62h-9.98a1.9 1.9 0 0 1-1.83-1.7v-51.5a1.92 1.92 0 0 1 1.24-1.73c.24-.08.49-.12.74-.11h9.58a1.9 1.9 0 0 1 1.86 1.72v6.91h.18c2.43-6.56 6.98-9.61 13.17-9.61 6.25 0 10.16 3.05 12.97 9.61 2.42-6.56 7.92-9.61 13.81-9.61 4.2 0 8.78 1.75 11.57 5.67 3.17 4.37 2.52 10.7 2.52 16.27v32.74a1.92 1.92 0 0 1-1.2 1.75c-.22.09-.47.13-.72.13H182.2a1.89 1.89 0 0 1-1.78-1.87v-27.36c0-2.16.2-7.61-.28-9.68-.73-3.46-2.93-4.44-5.8-4.44a6.52 6.52 0 0 0-5.9 4.23c-1.02 2.6-.92 6.96-.92 9.9v27.35a1.9 1.9 0 0 1-1.18 1.73c-.23.1-.47.14-.72.14h-10.29a1.87 1.87 0 0 1-1.77-1.87v-27.36c0-5.76.93-14.23-6.07-14.23-7.08 0-6.8 8.26-6.8 14.23v27.03a1.9 1.9 0 0 1-1.2 1.73c-.23.1-.48.14-.73.13"/><path fill="#090909" d="m128.55 176.62-.01.54h.01v-.54Zm-1.83-1.7h-.54v.05l.54-.06Zm0-51.5-.54-.01v.02h.54Zm1.98-1.84-.02.54h.02v-.54Zm9.58 0v-.54.54Zm1.86 1.72h.54v-.06l-.54.06Zm0 6.91h-.54v.54h.54v-.54Zm.18 0v.54h.38l.13-.35-.5-.19Zm26.14 0-.5.21.54 1.25.47-1.27-.5-.19Zm25.38-3.94-.43.31.44-.3Zm2.52 49.01h.54-.54Zm-1.92 1.88.01-.54v.54Zm-10.24 0-.03.54h.03v-.54Zm-1.78-1.87h-.54.54Zm-.28-37.04-.53.11v.01l.53-.12Zm-5.8-4.44v-.54h-.01l.01.54Zm-5.9 4.23.5.2-.5-.2Zm-.92 37.25h.54-.54Zm-1.9 1.87v-.54.54Zm-10.29 0-.03.54h.03v-.54Zm-1.77-1.87h-.54.54Zm-12.87-.33h.54-.54Zm-2.16 1.12h-9.98v1.08h9.98v-1.08Zm-9.96 0a1.37 1.37 0 0 1-.88-.37l-.74.8c.44.4 1 .63 1.59.65l.03-1.08Zm-.88-.37c-.25-.22-.4-.53-.44-.86l-1.07.12c.07.59.34 1.13.77 1.53l.74-.79Zm-.43-.8v-51.48h-1.08v51.48h1.08Zm0-51.47c0-.18.05-.36.12-.52l-.98-.45c-.14.3-.21.62-.22.94l1.08.03Zm.12-.52c.08-.17.18-.31.31-.44l-.73-.79c-.24.22-.43.49-.56.78l.98.45Zm.31-.44c.14-.12.29-.22.46-.28l-.38-1.01c-.3.11-.58.28-.81.5l.73.8Zm.46-.28c.17-.06.35-.1.53-.08l.04-1.08c-.32-.02-.64.03-.95.15l.38 1.01Zm.55-.08h9.58v-1.08h-9.58v1.08Zm9.57 0c.33 0 .65.13.9.36l.73-.8a2.44 2.44 0 0 0-1.61-.64l-.02 1.08Zm.9.36c.24.22.4.54.43.87l1.08-.1a2.45 2.45 0 0 0-.78-1.56l-.73.79Zm.43.82v6.91h1.08v-6.91h-1.08Zm.54 7.45h.18v-1.08h-.18v1.08Zm.69-.35c1.18-3.2 2.87-5.5 4.98-7.02 2.1-1.5 4.68-2.24 7.68-2.24v-1.08c-3.19 0-5.99.79-8.3 2.45-2.33 1.66-4.13 4.16-5.37 7.51l1 .38Zm12.66-9.26c3.03 0 5.45.74 7.45 2.24 2.01 1.5 3.64 3.82 5.03 7.04l.99-.42c-1.43-3.33-3.16-5.83-5.37-7.48-2.22-1.67-4.88-2.46-8.1-2.46v1.08Zm13.48 9.26c2.33-6.33 7.61-9.26 13.3-9.26v-1.08c-6.09 0-11.8 3.17-14.31 9.96l1 .38Zm13.3-9.26c4.06 0 8.46 1.7 11.14 5.44l.88-.62c-2.92-4.1-7.7-5.9-12.02-5.9v1.08Zm11.14 5.45c1.5 2.06 2.11 4.63 2.34 7.41.23 2.8.07 5.72.07 8.54h1.08c0-2.74.16-5.77-.07-8.63-.24-2.87-.88-5.66-2.55-7.95l-.87.63Zm2.41 15.95v32.74h1.08v-32.74h-1.08Zm0 32.73c0 .18-.04.36-.1.53l.99.42c.12-.3.19-.61.2-.93l-1.09-.02Zm-.1.53c-.08.16-.18.31-.3.44l.75.77c.23-.23.41-.5.54-.79l-1-.42Zm-.3.44c-.13.12-.28.22-.45.28l.4 1c.3-.11.57-.29.8-.51l-.76-.77Zm-.45.28c-.17.07-.34.1-.52.1l-.02 1.08c.32 0 .64-.05.94-.17l-.4-1Zm-.53.1H182.2v1.08h10.24v-1.08Zm-10.21 0a1.34 1.34 0 0 1-.9-.42l-.78.75c.43.44 1 .71 1.61.75l.07-1.08Zm-.9-.42a1.36 1.36 0 0 1-.37-.92l-1.08.02c.01.61.25 1.2.67 1.65l.79-.75Zm-.37-.9v-27.37h-1.08v27.36h1.08Zm0-27.37c0-1.04.05-3 .04-4.88a27.52 27.52 0 0 0-.33-4.92l-1.05.24c.22.97.29 2.78.3 4.69 0 1.91-.04 3.75-.04 4.87h1.08Zm-.3-9.8c-.38-1.83-1.18-3.07-2.32-3.85a7 7 0 0 0-4-1.01v1.08c1.38 0 2.52.24 3.4.83.85.58 1.53 1.55 1.87 3.18l1.06-.22Zm-6.33-4.86c-1.4.05-2.75.5-3.89 1.32l.63.88a6 6 0 0 1 3.3-1.12l-.04-1.08Zm-3.89 1.32a7.11 7.11 0 0 0-2.5 3.26l1 .38a6.05 6.05 0 0 1 2.13-2.76l-.63-.88Zm-2.5 3.25c-.54 1.39-.78 3.2-.88 5-.1 1.8-.08 3.64-.08 5.1h1.08c0-1.48-.03-3.28.08-5.05.1-1.77.33-3.44.8-4.65l-1-.4Zm-.96 10.1v27.35h1.08v-27.36h-1.08Zm0 27.34c0 .18-.04.36-.1.52l.99.42c.12-.29.19-.6.19-.92l-1.08-.02Zm-.1.52c-.08.16-.18.31-.3.44l.75.76c.23-.22.41-.48.53-.78l-.99-.42Zm-.3.44c-.13.12-.28.22-.44.28l.4 1c.3-.12.56-.3.8-.52l-.76-.76Zm-.44.28c-.16.07-.34.1-.51.1l-.02 1.08c.32 0 .64-.06.93-.18l-.4-1Zm-.52.1h-10.29v1.08h10.29v-1.08Zm-10.26 0a1.33 1.33 0 0 1-.89-.41l-.78.74c.42.44 1 .71 1.61.75l.06-1.08Zm-.89-.41a1.35 1.35 0 0 1-.37-.92h-1.08c0 .62.25 1.21.67 1.66l.78-.74Zm-.37-.92v-27.36h-1.08v27.36h1.08Zm0-27.36c0-2.82.24-6.48-.42-9.4a7.59 7.59 0 0 0-1.9-3.8 5.82 5.82 0 0 0-4.29-1.57v1.08c1.63 0 2.74.48 3.52 1.25.8.79 1.3 1.92 1.62 3.28.62 2.76.4 6.22.4 9.16h1.07Zm-6.6-14.77c-1.89 0-3.33.55-4.42 1.52a7.82 7.82 0 0 0-2.16 3.74c-.84 2.9-.77 6.56-.77 9.51h1.08c0-3.02-.06-6.49.73-9.2.39-1.35.98-2.47 1.84-3.25a5.28 5.28 0 0 1 3.7-1.24v-1.08Zm-7.35 14.77v27.03h1.08v-27.03h-1.08Zm0 27.02c0 .18-.04.35-.1.52l.98.43c.13-.3.2-.61.2-.94l-1.08-.01Zm-.1.52c-.08.16-.18.31-.31.43l.75.78c.23-.22.41-.49.54-.78l-.99-.43Zm-.31.43c-.13.13-.28.23-.45.3l.4 1c.3-.12.57-.3.8-.52l-.75-.78Zm-.45.3c-.16.06-.34.09-.51.08l-.03 1.08c.32 0 .64-.05.94-.17l-.4-1Z" mask="url(#path-6-inside-2_1_82)"/><mask id="path-8-inside-3_1_82" fill="#fff"><path d="M323.54 120.55c14.85 0 22.9 12.81 22.9 29.14 0 15.74-8.89 28.23-22.9 28.23-14.58 0-22.52-12.82-22.52-28.79 0-16.07 8.06-28.56 22.52-28.56m.09 10.54c-7.38 0-7.84 10.1-7.84 16.4 0 6.3-.1 19.77 7.75 19.77 7.76 0 8.13-10.87 8.13-17.48 0-4.36-.19-9.57-1.5-13.7-1.12-3.6-3.36-5-6.54-5Z"/></mask><path fill="#090909" d="M323.54 120.55c14.85 0 22.9 12.81 22.9 29.14 0 15.74-8.89 28.23-22.9 28.23-14.58 0-22.52-12.82-22.52-28.79 0-16.07 8.06-28.56 22.52-28.56m.09 10.54c-7.38 0-7.84 10.1-7.84 16.4 0 6.3-.1 19.77 7.75 19.77 7.76 0 8.13-10.87 8.13-17.48 0-4.36-.19-9.57-1.5-13.7-1.12-3.6-3.36-5-6.54-5Z"/><path fill="#090909" d="m330.17 136.1-.51.16.51-.16Zm-6.63-15.01c7.25 0 12.81 3.11 16.58 8.22 3.78 5.13 5.77 12.3 5.77 20.38h1.08c0-8.25-2.03-15.65-5.98-21.02-3.96-5.37-9.85-8.66-17.45-8.66v1.08Zm22.35 28.6c0 7.77-2.2 14.7-6.07 19.68a20.1 20.1 0 0 1-16.28 8v1.09c7.19 0 13.06-3.21 17.13-8.42 4.05-5.2 6.3-12.39 6.3-20.35h-1.08Zm-22.35 27.69a19.42 19.42 0 0 1-16.29-8.18c-3.72-5.09-5.69-12.16-5.69-20.07h-1.08c0 8.07 2 15.39 5.9 20.7a20.5 20.5 0 0 0 17.16 8.63v-1.08Zm-21.98-28.25c0-7.95 2-14.97 5.73-19.98 3.72-5 9.2-8.04 16.25-8.04v-1.08c-7.4 0-13.2 3.2-17.12 8.47-3.9 5.25-5.94 12.51-5.94 20.63h1.08Zm22.07-18.56c-1.98 0-3.53.68-4.71 1.83a10.3 10.3 0 0 0-2.49 4.38c-1.06 3.4-1.18 7.58-1.18 10.73h1.08c0-3.16.12-7.18 1.13-10.4a9.23 9.23 0 0 1 2.2-3.94 5.44 5.44 0 0 1 3.97-1.52v-1.08Zm-8.38 16.94c0 3.13-.03 8.14.95 12.37a13.8 13.8 0 0 0 2.4 5.54 6.1 6.1 0 0 0 4.94 2.4v-1.08c-1.78 0-3.1-.75-4.1-2a12.77 12.77 0 0 1-2.2-5.1c-.93-4.1-.9-8.97-.9-12.13h-1.09Zm8.3 20.31a6.7 6.7 0 0 0 4.92-1.96 11 11 0 0 0 2.56-4.68c1.09-3.63 1.18-8.08 1.18-11.38h-1.08c0 3.31-.1 7.6-1.13 11.07a9.93 9.93 0 0 1-2.3 4.23 5.62 5.62 0 0 1-4.16 1.64v1.08Zm8.66-18.02c0-4.36-.18-9.64-1.52-13.86l-1.03.33c1.28 4.04 1.47 9.17 1.47 13.53h1.08Zm-1.52-13.86a7.74 7.74 0 0 0-2.7-4.12 7.2 7.2 0 0 0-4.36-1.25v1.08c1.51 0 2.74.33 3.72 1.04a6.68 6.68 0 0 1 2.3 3.57l1.04-.32Z" mask="url(#path-8-inside-3_1_82)"/><mask id="path-10-inside-4_1_82" fill="#fff"><path d="M365.63 176.62h-9.95a1.93 1.93 0 0 1-1.86-1.86v-51.5a1.95 1.95 0 0 1 2-1.68h9.59a1.95 1.95 0 0 1 1.84 1.44v7.73h.19c2.78-7.06 6.68-10.43 13.54-10.43 4.45 0 8.8 1.62 11.6 6.09 2.6 4.13 2.6 11.08 2.6 16.07V175a1.93 1.93 0 0 1-1.93 1.62h-10.3a1.87 1.87 0 0 1-1.74-1.62v-28.06c0-5.65.64-13.9-6.16-13.9-2.4 0-4.6 1.61-5.7 4.13-1.38 3.15-1.56 6.29-1.56 9.77v28a1.94 1.94 0 0 1-1.95 1.87"/></mask><path fill="#090909" d="M365.63 176.62h-9.95a1.93 1.93 0 0 1-1.86-1.86v-51.5a1.95 1.95 0 0 1 2-1.68h9.59a1.95 1.95 0 0 1 1.84 1.44v7.73h.19c2.78-7.06 6.68-10.43 13.54-10.43 4.45 0 8.8 1.62 11.6 6.09 2.6 4.13 2.6 11.08 2.6 16.07V175a1.93 1.93 0 0 1-1.93 1.62h-10.3a1.87 1.87 0 0 1-1.74-1.62v-28.06c0-5.65.64-13.9-6.16-13.9-2.4 0-4.6 1.61-5.7 4.13-1.38 3.15-1.56 6.29-1.56 9.77v28a1.94 1.94 0 0 1-1.95 1.87"/><path fill="#090909" d="m355.68 176.62-.02.54h.01v-.54Zm-1.86-1.86h-.54v.02l.54-.02Zm0-51.5-.54-.08v.07h.54Zm2-1.68-.03.54h.02v-.54Zm9.59 0 .01-.54h-.01v.54Zm1.84 1.44h.54v-.08l-.02-.07-.52.15Zm0 7.73h-.54v.54h.54v-.54Zm.19 0v.54h.36l.14-.34-.5-.2Zm25.13-4.34-.45.28.45-.28Zm2.6 48.59.53.08.01-.04V175h-.54Zm-1.92 1.62.01-.54v.54Zm-10.3 0-.02.54h.03v-.54Zm-1.74-1.62h-.54v.07l.54-.07Zm-11.85-37.83.5.21-.5-.21Zm-1.57 37.78.54.02v-.02h-.54Zm-2.16 1.13h-9.95v1.08h9.95v-1.08Zm-9.93 0a1.39 1.39 0 0 1-.93-.4l-.77.76c.44.44 1.04.7 1.66.72l.04-1.08Zm-.93-.4a1.4 1.4 0 0 1-.41-.94l-1.08.04c.02.62.28 1.22.72 1.66l.77-.77Zm-.41-.92v-51.5h-1.08v51.5h1.08Zm0-51.43c.04-.35.21-.66.48-.89l-.7-.82c-.46.4-.77.95-.86 1.56l1.07.15Zm.48-.89c.27-.22.6-.34.95-.32l.04-1.08a2.48 2.48 0 0 0-1.68.58l.7.82Zm.97-.32h9.6v-1.08h-9.6v1.08Zm9.58 0c.31 0 .6.1.85.3l.66-.85a2.5 2.5 0 0 0-1.48-.53l-.03 1.08Zm.85.3c.24.19.41.45.5.74l1.03-.29a2.51 2.51 0 0 0-.87-1.3l-.66.85Zm.47.6v7.73h1.08v-7.73h-1.08Zm.54 8.27h.19v-1.08h-.19v1.08Zm.69-.34c1.37-3.49 3-6 5.07-7.64 2.07-1.64 4.63-2.45 7.97-2.45v-1.08c-3.53 0-6.34.87-8.64 2.68-2.28 1.8-4 4.51-5.4 8.1l1 .39Zm13.04-10.1c4.31 0 8.46 1.57 11.14 5.84l.91-.57c-2.92-4.66-7.46-6.34-12.05-6.34v1.08Zm11.14 5.84c1.23 1.97 1.87 4.64 2.19 7.5.32 2.83.32 5.79.32 8.3h1.08c0-2.5 0-5.52-.33-8.43-.32-2.9-.99-5.77-2.35-7.94l-.91.57Zm2.51 15.8V175h1.08v-32.52h-1.08Zm0 32.42c-.04.33-.21.63-.46.85l.7.82c.44-.38.74-.91.83-1.5l-1.06-.17Zm-.46.85c-.26.21-.58.32-.9.32l-.02 1.08c.59 0 1.16-.2 1.61-.58l-.7-.82Zm-.92.32h-10.3v1.08h10.3v-1.08Zm-10.26 0c-.3-.02-.6-.14-.82-.35l-.74.79c.41.38.94.6 1.5.64l.06-1.08Zm-.82-.35c-.23-.21-.38-.5-.42-.8l-1.07.14c.08.56.34 1.07.75 1.45l.74-.8Zm-.42-.73v-28.06h-1.08V175h1.08Zm0-28.06c0-2.78.17-6.35-.54-9.2a7.59 7.59 0 0 0-1.95-3.72 5.8 5.8 0 0 0-4.21-1.53v1.08c1.58 0 2.68.48 3.46 1.23.8.77 1.32 1.87 1.65 3.2.67 2.69.51 6.07.51 8.94h1.08Zm-6.7-14.45c-2.65 0-5.03 1.79-6.19 4.46l1 .43c1.02-2.36 3.05-3.8 5.19-3.8v-1.09Zm-6.19 4.46c-1.43 3.26-1.6 6.5-1.6 9.99h1.07c0-3.47.19-6.51 1.52-9.56l-.99-.43Zm-1.6 9.99v28h1.07v-28h-1.08Zm0 27.99a1.4 1.4 0 0 1-.44.96l.75.78c.46-.45.74-1.06.76-1.7l-1.08-.04Zm-.44.96c-.26.25-.61.39-.97.38l-.02 1.08c.65.01 1.27-.23 1.74-.68l-.75-.78Z" mask="url(#path-10-inside-4_1_82)"/><mask id="path-12-inside-5_1_82" fill="#fff"><path d="M232.48 152.34v-2.35c-7.23 0-14.87 1.55-14.87 10.13 0 4.31 2.23 7.28 6.07 7.28 2.82 0 5.34-1.74 6.93-4.57 1.97-3.48 1.87-6.75 1.87-10.66m10.03 24.34a2.07 2.07 0 0 1-2.35.24c-3.3-2.76-3.89-4.04-5.7-6.67-5.46 5.6-9.32 7.27-16.4 7.27-8.36 0-14.88-5.19-14.88-15.58 0-8.1 4.38-13.63 10.6-16.33 5.37-2.4 12.94-2.81 18.7-3.48v-1.29c0-2.37.19-5.19-1.2-7.24-1.22-1.84-3.54-2.6-5.58-2.6-3.8 0-7.18 1.95-8 6-.17.9-.82 1.79-1.72 1.83l-9.66-1.04a1.75 1.75 0 0 1-1.48-1.38 1.77 1.77 0 0 1 0-.71c2.22-11.76 12.78-15.3 22.23-15.3 4.83 0 11.16 1.3 14.99 4.98 4.83 4.54 4.37 10.6 4.37 17.19v15.58c0 4.68 1.93 6.73 3.76 9.27.64.89.78 1.97-.03 2.65-2.03 1.7-5.64 4.86-7.62 6.64l-.03-.03Z"/></mask><path fill="#090909" d="M232.48 152.34v-2.35c-7.23 0-14.87 1.55-14.87 10.13 0 4.31 2.23 7.28 6.07 7.28 2.82 0 5.34-1.74 6.93-4.57 1.97-3.48 1.87-6.75 1.87-10.66m10.03 24.34a2.07 2.07 0 0 1-2.35.24c-3.3-2.76-3.89-4.04-5.7-6.67-5.46 5.6-9.32 7.27-16.4 7.27-8.36 0-14.88-5.19-14.88-15.58 0-8.1 4.38-13.63 10.6-16.33 5.37-2.4 12.94-2.81 18.7-3.48v-1.29c0-2.37.19-5.19-1.2-7.24-1.22-1.84-3.54-2.6-5.58-2.6-3.8 0-7.18 1.95-8 6-.17.9-.82 1.79-1.72 1.83l-9.66-1.04a1.75 1.75 0 0 1-1.48-1.38 1.77 1.77 0 0 1 0-.71c2.22-11.76 12.78-15.3 22.23-15.3 4.83 0 11.16 1.3 14.99 4.98 4.83 4.54 4.37 10.6 4.37 17.19v15.58c0 4.68 1.93 6.73 3.76 9.27.64.89.78 1.97-.03 2.65-2.03 1.7-5.64 4.86-7.62 6.64l-.03-.03Z"/><path fill="#090909" d="M232.48 149.99h.54v-.54h-.54v.54Zm-1.87 12.84-.47-.27.47.27Zm9.55 13.92-.35.41.04.03.05.03.26-.47Zm-5.7-6.67.44-.3-.38-.54-.45.47.38.37Zm-20.68-24.64.22.5-.22-.5Zm18.7-3.48.06.54.48-.06v-.48h-.54Zm-1.2-8.53-.45.3.45-.3Zm-13.58 3.4-.53-.1.53.1Zm-1.72 1.83-.06.54h.08l-.02-.54Zm-9.66-1.04-.08.53h.02l.06-.53Zm-1.49-2.1.53.11-.53-.1Zm37.22-10.31-.37.39.38-.4Zm8.14 42.04.44-.32-.44.31Zm-.03 2.65-.34-.41.34.41Zm-7.62 6.64-.42.34.36.43.42-.37-.36-.4Zm-9.52-24.2v-2.35h-1.08v2.34h1.08Zm-.54-2.9c-3.63 0-7.46.4-10.4 1.92a9.02 9.02 0 0 0-3.63 3.27 10.28 10.28 0 0 0-1.38 5.49h1.08a9.2 9.2 0 0 1 1.22-4.92 7.95 7.95 0 0 1 3.2-2.88c2.7-1.4 6.31-1.8 9.91-1.8v-1.07Zm-15.41 10.68c0 2.24.58 4.2 1.72 5.6a6.08 6.08 0 0 0 4.9 2.22v-1.08a5 5 0 0 1-4.07-1.82c-.94-1.16-1.47-2.85-1.47-4.92h-1.08Zm6.61 7.82c3.06 0 5.74-1.89 7.4-4.84l-.94-.53c-1.52 2.7-3.88 4.3-6.46 4.3v1.07Zm7.4-4.84c2.05-3.63 1.94-7.04 1.94-10.93h-1.08c0 3.94.09 7.06-1.8 10.4l.94.53Zm11.08 13c-.24.2-.53.33-.84.36l.1 1.07a2.6 2.6 0 0 0 1.44-.62l-.7-.81Zm-.84.36c-.31.03-.63-.03-.9-.18l-.52.94c.46.26 1 .37 1.53.31l-.11-1.07Zm-.81-.13c-3.24-2.7-3.78-3.91-5.61-6.55l-.9.61c1.82 2.62 2.44 3.96 5.81 6.77l.7-.83Zm-6.44-6.62c-2.7 2.77-4.98 4.53-7.42 5.61-2.44 1.08-5.1 1.5-8.59 1.5v1.07c3.58 0 6.4-.42 9.02-1.58 2.62-1.16 5-3.03 7.76-5.85l-.77-.75Zm-16 7.1c-4.08 0-7.66-1.26-10.21-3.74-2.55-2.47-4.14-6.22-4.14-11.3h-1.08c0 5.31 1.67 9.36 4.47 12.07 2.8 2.72 6.66 4.05 10.95 4.05v-1.08Zm-14.35-15.04c0-7.86 4.24-13.22 10.28-15.84l-.43-.99c-6.4 2.78-10.93 8.5-10.93 16.83h1.08ZM214 145.93c2.62-1.16 5.8-1.86 9.06-2.34 3.28-.49 6.58-.76 9.48-1.1l-.12-1.06c-2.85.33-6.22.6-9.51 1.09-3.3.49-6.6 1.2-9.35 2.42l.44 1Zm19.02-3.97v-1.29h-1.08v1.3h1.08Zm0-1.29c0-1.16.05-2.5-.08-3.8a8.04 8.04 0 0 0-1.21-3.74l-.9.6c.63.93.91 2.04 1.03 3.26.13 1.22.08 2.47.08 3.68h1.08Zm-1.3-7.54c-1.35-2.04-3.88-2.84-6.02-2.84v1.08c1.94 0 4.05.73 5.13 2.36l.9-.6Zm-6.02-2.84c-3.98 0-7.64 2.07-8.53 6.44l1.06.22c.76-3.74 3.86-5.58 7.47-5.58v-1.08Zm-8.53 6.45a2.1 2.1 0 0 1-.46.97c-.23.26-.49.4-.76.41l.06 1.08a2.15 2.15 0 0 0 1.5-.78c.37-.41.62-.95.72-1.48l-1.06-.2Zm-1.13 1.38-9.67-1.04-.11 1.08 9.66 1.04.12-1.08Zm-9.65-1.03a1.2 1.2 0 0 1-.46-.17l-.57.92c.27.16.57.27.88.31l.15-1.06Zm-.46-.17a1.2 1.2 0 0 1-.37-.34l-.88.63c.19.25.42.47.68.63l.57-.92Zm-.37-.34c-.1-.13-.16-.29-.2-.45l-1.05.22c.07.3.2.6.37.86l.88-.63Zm-.2-.45a1.22 1.22 0 0 1 0-.5l-1.06-.21c-.06.3-.06.63.01.93l1.06-.22Zm0-.5c1.08-5.72 4.18-9.41 8.15-11.69 3.99-2.3 8.9-3.17 13.56-3.17v-1.08c-4.78 0-9.9.9-14.1 3.31-4.23 2.43-7.52 6.38-8.67 12.43l1.06.2Zm21.71-14.86c4.78 0 10.94 1.29 14.61 4.83l.75-.78c-3.97-3.82-10.47-5.13-15.36-5.13v1.08Zm14.62 4.83c4.62 4.35 4.2 10.12 4.2 16.8h1.08c0-6.5.5-12.85-4.55-17.59l-.73.8Zm4.2 16.8v15.58h1.08V142.4h-1.08Zm0 15.58c0 4.88 2.05 7.07 3.86 9.58l.88-.63c-1.85-2.56-3.66-4.47-3.66-8.95h-1.08Zm3.86 9.58c.28.38.42.78.43 1.11.01.32-.1.6-.36.82l.69.82c.54-.45.77-1.05.75-1.67-.02-.6-.27-1.2-.63-1.71l-.88.63Zm.06 1.93c-2.03 1.7-5.64 4.86-7.63 6.64l.72.8c1.98-1.77 5.58-4.92 7.6-6.62l-.69-.82Zm-6.86 6.7-.02-.03-.84.69.03.03.83-.69Z" mask="url(#path-12-inside-5_1_82)"/><mask id="path-14-inside-6_1_82" fill="#fff"><path d="M100.95 152.34v-2.35c-7.24 0-14.88 1.55-14.88 10.13 0 4.31 2.24 7.28 6.08 7.28 2.82 0 5.34-1.74 6.93-4.57 1.97-3.48 1.87-6.74 1.87-10.66m10.03 24.34a2.07 2.07 0 0 1-2.35.24c-3.3-2.76-3.9-4.04-5.71-6.67-5.46 5.6-9.32 7.27-16.4 7.27-8.36 0-14.87-5.19-14.87-15.58 0-8.1 4.38-13.63 10.6-16.33 5.37-2.4 12.94-2.81 18.7-3.48v-1.29c0-2.37.18-5.19-1.2-7.24-1.22-1.84-3.54-2.6-5.59-2.6-3.79 0-7.17 1.95-8 6-.16.9-.82 1.79-1.71 1.83l-9.67-1.04a1.75 1.75 0 0 1-1.48-1.38 1.77 1.77 0 0 1 0-.71c2.22-11.76 12.78-15.3 22.24-15.3 4.83 0 11.16 1.3 14.98 4.98 4.83 4.54 4.38 10.6 4.38 17.2v15.57c0 4.68 1.93 6.73 3.75 9.27.65.9.79 1.98-.02 2.65-2.03 1.7-5.64 4.86-7.63 6.64l-.02-.03Z"/></mask><path fill="#090909" d="M100.95 152.34v-2.35c-7.24 0-14.88 1.55-14.88 10.13 0 4.31 2.24 7.28 6.08 7.28 2.82 0 5.34-1.74 6.93-4.57 1.97-3.48 1.87-6.74 1.87-10.66m10.03 24.34a2.07 2.07 0 0 1-2.35.24c-3.3-2.76-3.9-4.04-5.71-6.67-5.46 5.6-9.32 7.27-16.4 7.27-8.36 0-14.87-5.19-14.87-15.58 0-8.1 4.38-13.63 10.6-16.33 5.37-2.4 12.94-2.81 18.7-3.48v-1.29c0-2.37.18-5.19-1.2-7.24-1.22-1.84-3.54-2.6-5.59-2.6-3.79 0-7.17 1.95-8 6-.16.9-.82 1.79-1.71 1.83l-9.67-1.04a1.75 1.75 0 0 1-1.48-1.38 1.77 1.77 0 0 1 0-.71c2.22-11.76 12.78-15.3 22.24-15.3 4.83 0 11.16 1.3 14.98 4.98 4.83 4.54 4.38 10.6 4.38 17.2v15.57c0 4.68 1.93 6.73 3.75 9.27.65.9.79 1.98-.02 2.65-2.03 1.7-5.64 4.86-7.63 6.64l-.02-.03Z"/><path fill="#090909" d="M100.95 149.99h.54v-.54h-.54v.54Zm-1.87 12.84-.47-.27.47.27Zm11.9 13.67.41-.34-.35-.42-.42.36.36.4Zm-2.35.25-.35.41.04.03.04.03.27-.47Zm-5.71-6.67.44-.3-.37-.54-.46.47.39.37Zm-20.67-24.64.21.5-.21-.5Zm18.7-3.48.06.54.48-.06v-.48h-.54Zm-1.2-8.53-.45.3.45-.3Zm-13.59 3.4-.53-.1.53.1Zm-1.71 1.83-.06.54h.08l-.02-.54Zm-9.67-1.04-.07.53h.01l.06-.53Zm-1.48-2.1.53.11-.53-.1Zm37.22-10.31-.37.39.37-.4Zm8.14 42.04.43-.32-.44.31Zm-.03 2.65-.35-.41.35.41Zm-7.63 6.64-.41.34.36.43.41-.37-.36-.4Zm-9.51-24.2v-2.35h-1.08v2.34h1.08Zm-.54-2.9c-3.64 0-7.47.4-10.4 1.92a9.02 9.02 0 0 0-3.63 3.27 10.28 10.28 0 0 0-1.39 5.49h1.08a9.2 9.2 0 0 1 1.23-4.92 7.93 7.93 0 0 1 3.2-2.88c2.7-1.4 6.3-1.8 9.9-1.8v-1.07Zm-15.42 10.68c0 2.24.58 4.2 1.72 5.6a6.08 6.08 0 0 0 4.9 2.22v-1.08a5 5 0 0 1-4.06-1.82c-.94-1.16-1.48-2.85-1.48-4.92h-1.08Zm6.62 7.82c3.06 0 5.74-1.89 7.4-4.84l-.95-.53c-1.51 2.7-3.87 4.3-6.45 4.3v1.07Zm7.4-4.84c2.05-3.63 1.94-7.04 1.94-10.93h-1.08c0 3.94.08 7.06-1.8 10.4l.93.53Zm11.08 13c-.24.2-.53.33-.85.36l.11 1.07a2.6 2.6 0 0 0 1.44-.62l-.7-.81Zm-.85.36c-.3.03-.62-.03-.9-.18l-.52.94c.47.26 1 .37 1.53.31l-.1-1.07Zm-.8-.13c-3.24-2.7-3.79-3.91-5.62-6.55l-.88.61c1.8 2.62 2.43 3.96 5.8 6.77l.7-.83Zm-6.45-6.62c-2.7 2.77-4.97 4.53-7.42 5.61-2.43 1.08-5.09 1.5-8.58 1.5v1.07c3.58 0 6.4-.42 9.02-1.58 2.62-1.16 5-3.03 7.76-5.85l-.78-.75Zm-16 7.1c-4.07 0-7.65-1.26-10.2-3.74-2.55-2.47-4.14-6.22-4.14-11.3H71.1c0 5.31 1.67 9.36 4.47 12.08 2.79 2.7 6.66 4.04 10.95 4.04v-1.08Zm-14.34-15.04c0-7.86 4.23-13.22 10.27-15.84l-.42-.99c-6.4 2.78-10.93 8.5-10.93 16.83h1.08Zm10.28-15.84c2.62-1.16 5.8-1.86 9.06-2.34 3.28-.49 6.57-.75 9.48-1.09l-.12-1.07c-2.86.33-6.22.6-9.52 1.09-3.3.49-6.59 1.2-9.34 2.43l.44.98Zm19.02-3.97v-1.29h-1.08v1.3h1.08Zm0-1.29c0-1.16.05-2.5-.09-3.8a8.04 8.04 0 0 0-1.2-3.74l-.9.6c.62.93.9 2.04 1.03 3.26.12 1.22.08 2.47.08 3.68h1.08Zm-1.3-7.54c-1.35-2.04-3.88-2.84-6.03-2.84v1.08c1.95 0 4.06.73 5.14 2.36l.9-.6Zm-6.03-2.84c-3.97 0-7.63 2.07-8.53 6.44l1.06.22c.76-3.74 3.87-5.58 7.47-5.58v-1.08Zm-8.53 6.45c-.06.36-.23.71-.46.97-.22.26-.48.4-.75.41l.05 1.08a2.16 2.16 0 0 0 1.51-.77c.37-.42.61-.96.71-1.5l-1.06-.2Zm-1.13 1.38-9.66-1.04-.12 1.08 9.67 1.04.11-1.07Zm-9.64-1.03a1.22 1.22 0 0 1-.47-.17l-.56.92c.27.16.57.27.88.31l.15-1.06Zm-.47-.17c-.14-.09-.26-.2-.36-.34l-.88.63c.18.25.41.47.68.63l.56-.92Zm-.36-.34c-.1-.13-.16-.29-.2-.45l-1.05.22c.06.31.19.6.37.86l.88-.63Zm-.2-.45a1.23 1.23 0 0 1 0-.5l-1.06-.2c-.06.3-.06.62 0 .92l1.06-.22Zm0-.5c1.08-5.72 4.17-9.4 8.15-11.69 3.99-2.3 8.89-3.17 13.56-3.17v-1.08c-4.79 0-9.9.9-14.1 3.31-4.23 2.43-7.53 6.38-8.67 12.43l1.06.2Zm21.7-14.86c4.78 0 10.94 1.29 14.62 4.83l.75-.78c-3.98-3.82-10.48-5.13-15.36-5.13v1.08Zm14.62 4.83c4.63 4.35 4.2 10.12 4.2 16.8h1.09c0-6.5.49-12.85-4.55-17.59l-.74.8Zm4.2 16.8v15.58h1.09V142.4h-1.08Zm0 15.58c0 4.88 2.06 7.07 3.87 9.58l.87-.63c-1.84-2.56-3.65-4.47-3.65-8.95h-1.08Zm3.87 9.58c.27.39.42.78.43 1.11 0 .32-.1.6-.37.82l.7.82c.54-.45.77-1.05.75-1.67-.02-.6-.27-1.2-.64-1.71l-.87.63Zm.06 1.93c-2.03 1.7-5.65 4.86-7.64 6.65l.72.8c1.99-1.78 5.6-4.93 7.61-6.63l-.69-.82Zm-6.86 6.7-.03-.03-.83.69.03.03.83-.69Z" mask="url(#path-14-inside-6_1_82)"/><path fill="#5F6368" d="M308.58 95.05c1.07 0 2.19-.2 3.35-.63a12.79 12.79 0 0 0 3.35-1.85v-4.98a21.97 21.97 0 0 0-5.14-.63c-3.66 0-5.5 1.42-5.5 4.24 0 1.24.35 2.19 1.03 2.85.68.67 1.65 1 2.91 1Zm-1.16 3.66c-2.3 0-4.14-.66-5.51-1.98a6.97 6.97 0 0 1-2.07-5.28c0-2.38.84-4.27 2.53-5.68 1.68-1.42 3.95-2.13 6.8-2.13 1.8 0 3.85.28 6.11.83v-3.21c0-1.76-.4-3-1.19-3.7-.79-.72-2.14-1.08-4.05-1.08-2.24 0-4.42.33-6.56.97-.74.23-1.21.34-1.4.34-.4 0-.59-.29-.59-.87V75.6c0-.42.06-.73.2-.92.13-.2.38-.38.77-.54 1-.45 2.28-.82 3.81-1.1a26 26 0 0 1 4.6-.41c3.07 0 5.34.64 6.8 1.93 1.45 1.28 2.18 3.23 2.18 5.87V97.1c0 .65-.33.97-.98.97h-2.08c-.62 0-.97-.3-1.07-.92l-.25-1.6c-1.16 1-2.45 1.78-3.85 2.33-1.41.55-2.81.83-4.2.83ZM333.15 98.07c-.45 0-.78-.06-1-.19-.2-.13-.42-.5-.65-1.12l-8.6-21.64c-.06-.2-.13-.4-.21-.59a1.4 1.4 0 0 1-.12-.54c0-.42.24-.63.72-.63h2.87c.48 0 .82.07 1.02.2.2.13.4.5.63 1.12l6.65 19 6.66-19c.22-.62.43-1 .63-1.12.2-.13.53-.2 1.02-.2h2.67c.48 0 .73.21.73.63 0 .17-.04.35-.13.54l-.21.59-8.55 21.64c-.23.62-.45.99-.66 1.12-.2.13-.54.2-.99.2h-2.48ZM356.85 95.05c1.06 0 2.18-.2 3.35-.63a12.75 12.75 0 0 0 3.35-1.85v-4.98a21.95 21.95 0 0 0-5.15-.63c-3.66 0-5.49 1.42-5.49 4.24 0 1.24.34 2.19 1.02 2.85.68.67 1.66 1 2.92 1Zm-1.17 3.66c-2.3 0-4.13-.66-5.5-1.98a6.97 6.97 0 0 1-2.07-5.28c0-2.38.84-4.27 2.52-5.68 1.68-1.42 3.95-2.13 6.8-2.13 1.81 0 3.85.28 6.12.83v-3.21c0-1.76-.4-3-1.2-3.7-.78-.72-2.14-1.08-4.05-1.08-2.23 0-4.42.33-6.55.97-.75.23-1.21.34-1.4.34-.4 0-.6-.29-.6-.87V75.6c0-.42.07-.73.2-.92.13-.2.4-.38.78-.54 1-.45 2.27-.82 3.8-1.1 1.55-.27 3.08-.41 4.6-.41 3.07 0 5.34.64 6.8 1.93 1.45 1.28 2.18 3.23 2.18 5.87V97.1c0 .65-.32.97-.97.97h-2.09c-.61 0-.97-.3-1.07-.92l-.24-1.6c-1.16 1-2.45 1.78-3.86 2.33-1.4.55-2.8.83-4.2.83ZM375.69 98.07c-.65 0-.97-.32-.97-.97V74.34c0-.65.32-.98.97-.98h2.86c.65 0 .97.33.97.98V97.1c0 .65-.32.97-.97.97h-2.86Zm1.45-29.1c-.94 0-1.67-.27-2.2-.8a2.86 2.86 0 0 1-.8-2.12c0-.88.26-1.59.8-2.12.53-.54 1.26-.8 2.2-.8a3 3 0 0 1 2.21.8c.54.53.8 1.24.8 2.12 0 .88-.26 1.58-.8 2.12-.53.53-1.27.8-2.2.8ZM391.47 98.32c-1.72 0-3.03-.5-3.93-1.49-.9-.99-1.37-2.41-1.37-4.26v-29.6c0-.64.33-.97.98-.97H390c.65 0 .98.33.98.98v29.3c0 .74.15 1.29.46 1.63.3.34.81.51 1.52.51.2 0 .4-.01.61-.05.21-.03.4-.05.56-.05.32 0 .54.09.66.25.1.16.16.4.16.73v1.56c0 .32-.07.58-.21.75-.15.18-.4.32-.76.42-.8.19-1.65.29-2.52.29ZM406.47 95.05c1.07 0 2.19-.2 3.35-.63a12.75 12.75 0 0 0 3.35-1.85v-4.98a21.94 21.94 0 0 0-5.14-.63c-3.66 0-5.5 1.42-5.5 4.24 0 1.24.35 2.19 1.03 2.85.68.67 1.65 1 2.91 1Zm-1.16 3.66c-2.3 0-4.14-.66-5.51-1.98a6.97 6.97 0 0 1-2.07-5.28c0-2.38.84-4.27 2.53-5.68 1.68-1.42 3.95-2.13 6.8-2.13 1.8 0 3.84.28 6.11.83v-3.21c0-1.76-.4-3-1.19-3.7-.8-.72-2.14-1.08-4.05-1.08-2.24 0-4.42.33-6.56.97-.74.23-1.2.34-1.4.34-.4 0-.59-.29-.59-.87V75.6c0-.42.07-.73.2-.92.13-.2.38-.38.77-.54 1-.45 2.28-.82 3.81-1.1a26 26 0 0 1 4.6-.41c3.07 0 5.34.64 6.8 1.93 1.45 1.28 2.18 3.23 2.18 5.87V97.1c0 .65-.33.97-.98.97h-2.08c-.62 0-.97-.3-1.07-.92l-.24-1.6a13.3 13.3 0 0 1-3.86 2.33c-1.41.55-2.81.83-4.2.83ZM435.36 94.71c4.47 0 6.7-3.02 6.7-9.06 0-3.1-.54-5.38-1.62-6.88-1.09-1.5-2.75-2.24-4.98-2.24-2.3 0-4.47.75-6.5 2.24v13.6a10.4 10.4 0 0 0 6.4 2.34Zm1.12 3.9c-2.98 0-5.59-1.04-7.82-3.12l-.34 1.6c-.1.66-.47.98-1.11.98h-2.1c-.64 0-.96-.32-.96-.97V62.98c0-.65.32-.98.97-.98h2.86c.65 0 .97.33.97.98V75.7a11.98 11.98 0 0 1 7.87-3.07c3.14 0 5.61 1.14 7.43 3.41 1.8 2.28 2.72 5.4 2.72 9.36 0 4-.96 7.2-2.87 9.6a9.25 9.25 0 0 1-7.62 3.61ZM457.46 98.32c-1.72 0-3.03-.5-3.93-1.49-.91-.99-1.36-2.41-1.36-4.26v-29.6c0-.64.32-.97.97-.97H456c.65 0 .97.33.97.98v29.3c0 .74.15 1.29.46 1.63.31.34.82.51 1.53.51.2 0 .4-.01.6-.05.22-.03.4-.05.57-.05.32 0 .54.09.66.25.1.16.16.4.16.73v1.56c0 .32-.07.58-.21.75-.15.18-.4.32-.75.42-.82.19-1.66.29-2.53.29ZM480.77 83.55c.03-.26.04-.68.04-1.27 0-1.98-.45-3.48-1.38-4.49-.93-1-2.27-1.5-4.06-1.5-2.03 0-3.62.6-4.75 1.82-1.14 1.22-1.78 3.03-1.95 5.44h12.1ZM476.1 98.8c-3.98 0-6.99-1.1-9.03-3.32-2.04-2.2-3.06-5.47-3.06-9.8 0-4.12 1.02-7.33 3.06-9.62 2.04-2.3 4.9-3.44 8.55-3.44 3.07 0 5.44.87 7.09 2.6 1.65 1.75 2.48 4.2 2.48 7.4 0 1.03-.09 2.09-.25 3.16-.06.4-.17.65-.31.78-.15.13-.39.2-.7.2h-15.26c.07 2.8.76 4.86 2.07 6.19 1.31 1.33 3.34 2 6.09 2 .98 0 1.9-.07 2.8-.2.88-.13 2.01-.4 3.37-.83l.58-.17c.16-.05.31-.07.44-.07.42 0 .63.29.63.88v1.36c0 .42-.06.72-.2.9-.12.18-.4.37-.82.56-.97.43-2.13.77-3.47 1.03-1.34.25-2.7.39-4.06.39ZM509.41 95.05c1.07 0 2.19-.2 3.35-.63a12.74 12.74 0 0 0 3.35-1.85v-4.98a21.97 21.97 0 0 0-5.14-.63c-3.67 0-5.5 1.42-5.5 4.24 0 1.24.35 2.19 1.03 2.85.68.67 1.65 1 2.91 1Zm-1.16 3.66c-2.3 0-4.14-.66-5.51-1.98a6.98 6.98 0 0 1-2.07-5.28c0-2.38.84-4.27 2.52-5.68 1.7-1.42 3.96-2.13 6.8-2.13 1.82 0 3.86.28 6.12.83v-3.21c0-1.76-.4-3-1.19-3.7-.8-.72-2.14-1.08-4.05-1.08-2.24 0-4.42.33-6.56.97-.74.23-1.21.34-1.4.34-.4 0-.59-.29-.59-.87V75.6c0-.42.07-.73.2-.92.13-.2.39-.38.78-.54 1-.45 2.27-.82 3.8-1.1 1.54-.27 3.07-.41 4.6-.41 3.07 0 5.34.64 6.8 1.93 1.45 1.28 2.18 3.23 2.18 5.87V97.1c0 .65-.32.97-.97.97h-2.1c-.6 0-.96-.3-1.06-.92l-.24-1.6c-1.17 1-2.45 1.78-3.86 2.33-1.4.55-2.81.83-4.2.83ZM535.54 98.42c-4.6 0-6.9-2.3-6.9-6.92V77.16h-3.5c-.64 0-.97-.32-.97-.97v-1.22c0-.32.08-.57.22-.73.15-.16.44-.28.86-.34l3.54-.44.63-6.05c.07-.65.4-.97 1.02-.97h2.04c.65 0 .97.32.97.97v5.95h6.31c.65 0 .98.33.98.98v1.85c0 .65-.33.97-.98.97h-6.31v14.1c0 1.2.27 2.04.8 2.53.54.48 1.45.73 2.75.73.61 0 1.37-.09 2.28-.25.48-.1.8-.14.97-.14.26 0 .43.07.53.22.1.14.15.38.15.7v1.32c0 .42-.07.74-.2.95-.13.21-.38.38-.77.51-1.26.39-2.74.59-4.42.59Z"/><path fill="#090909" d="M444.79 164.72c1.76 0 3.62-.38 5.57-1.15a22.77 22.77 0 0 0 5.66-3.25v-8.8c-3.22-.67-6.09-1.01-8.58-1.01-6.33 0-9.5 2.47-9.5 7.43 0 2.13.6 3.8 1.83 5 1.21 1.19 2.89 1.78 5.02 1.78Zm-3.02 7.71c-4.26 0-7.71-1.28-10.36-3.85-2.65-2.57-3.98-5.9-3.98-10 0-4.53 1.63-8.13 4.89-10.82 3.25-2.7 7.63-4.04 13.11-4.04 3.23 0 6.76.46 10.6 1.38v-5.42c0-3.11-.67-5.28-2.02-6.5-1.33-1.23-3.68-1.84-7.03-1.84-2 0-4.23.2-6.67.6-2.44.4-4.75.96-6.94 1.7-.61.17-1.13.27-1.56.27-.78 0-1.18-.58-1.18-1.75v-3.4c0-.84.12-1.46.36-1.82.25-.37.89-.76 1.92-1.2a43.52 43.52 0 0 1 15.8-2.75c5.98 0 10.38 1.22 13.2 3.67 2.84 2.44 4.26 6.27 4.26 11.47v30.9c0 1.35-.67 2.02-2.01 2.02h-4.85c-1.33 0-2.1-.6-2.28-1.84l-.46-2.65a25.31 25.31 0 0 1-7.07 4.31 20.63 20.63 0 0 1-7.73 1.56ZM497.53 163.53c3.9 0 6.8-1.33 8.68-3.99 1.89-2.66 2.83-6.7 2.83-12.15 0-5.38-.93-9.37-2.79-11.97-1.86-2.6-4.73-3.9-8.63-3.9-3.96 0-7.62 1.16-10.97 3.49v24.95a18.69 18.69 0 0 0 10.88 3.57Zm-19.64 26.42c-1.35 0-2.01-.68-2.01-2.02v-61.54c0-1.35.66-2.02 2-2.02h5.03c1.34 0 2.13.6 2.38 1.83l.54 2.84a23.17 23.17 0 0 1 7.09-4.49A21.47 21.47 0 0 1 501 123c5.79 0 10.4 2.17 13.84 6.51 3.44 4.35 5.16 10.18 5.16 17.53 0 5.07-.84 9.5-2.5 13.29-1.69 3.8-4.02 6.7-7 8.71a17.83 17.83 0 0 1-10.23 3.03c-2.56 0-5.02-.44-7.4-1.33a19.19 19.19 0 0 1-6.22-3.71v20.9c0 1.35-.66 2.03-2 2.03h-6.76ZM549.42 163.53c3.9 0 6.8-1.33 8.68-3.99 1.89-2.66 2.83-6.7 2.83-12.15 0-5.38-.93-9.37-2.79-11.97-1.86-2.6-4.73-3.9-8.63-3.9-3.96 0-7.62 1.16-10.97 3.49v24.95a18.68 18.68 0 0 0 10.88 3.57Zm-19.64 26.42c-1.35 0-2.01-.68-2.01-2.02v-61.54c0-1.35.66-2.02 2-2.02h5.03c1.34 0 2.13.6 2.38 1.83l.55 2.84a23.15 23.15 0 0 1 7.08-4.49 21.48 21.48 0 0 1 8.08-1.56c5.79 0 10.4 2.17 13.84 6.51 3.44 4.35 5.16 10.18 5.16 17.53 0 5.07-.84 9.5-2.5 13.29-1.68 3.8-4.02 6.7-7 8.71a17.83 17.83 0 0 1-10.23 3.03c-2.56 0-5.02-.44-7.4-1.33a19.15 19.15 0 0 1-6.22-3.71v20.9c0 1.35-.66 2.03-2 2.03h-6.76ZM592.1 172.43c-4.8 0-9.25-.8-13.33-2.39-.97-.37-1.6-.75-1.87-1.15-.28-.4-.41-1.05-.41-1.97v-3.3c0-1.22.42-1.84 1.28-1.84.42 0 1.28.2 2.56.56a43.26 43.26 0 0 0 11.69 1.83c3.05 0 5.27-.47 6.67-1.42 1.4-.95 2.1-2.4 2.1-4.35a4.3 4.3 0 0 0-1.28-3.26c-.85-.83-2.43-1.67-4.75-2.52l-7.58-2.94c-6.82-2.63-10.23-6.91-10.23-12.84 0-4.28 1.58-7.66 4.74-10.13 3.17-2.48 7.4-3.72 12.7-3.72 3.78 0 7.59.65 11.42 1.93.92.3 1.53.66 1.83 1.05.3.4.46 1.09.46 2.07v3.21c0 .67-.11 1.14-.32 1.42-.22.27-.6.4-1.14.4-.3 0-1.07-.14-2.29-.45-3.84-.91-6.94-1.37-9.32-1.37-2.8 0-4.85.41-6.16 1.24-1.31.82-1.97 2.12-1.97 3.9 0 1.34.48 2.42 1.42 3.25.94.82 2.63 1.73 5.07 2.7l7.03 2.75c3.66 1.41 6.3 3.1 7.9 5.05 1.62 1.96 2.43 4.43 2.43 7.43 0 4.59-1.65 8.2-4.94 10.87-3.29 2.66-7.85 3.99-13.7 3.99ZM636.33 171.7c-4.82 0-8.38-1.14-10.7-3.4-2.3-2.26-3.47-5.72-3.47-10.36v-25.32h-5.84c-1.34 0-2.02-.67-2.02-2.02v-2.65c0-.8.16-1.37.47-1.7.3-.34.79-.56 1.46-.69l6.3-.91 1.37-11.1c.06-.74.27-1.26.64-1.56.36-.3.91-.46 1.64-.46h4.76c1.33 0 2 .67 2 2.02v10.82h11.24c1.34 0 2.01.67 2.01 2.02v4.21c0 1.35-.67 2.02-2.01 2.02h-11.23v24.77c0 2.08.5 3.56 1.5 4.44 1.01.9 2.7 1.33 5.07 1.33 1.4 0 2.53-.1 3.38-.27.86-.18 1.56-.28 2.1-.28 1.04 0 1.56.59 1.56 1.74v3.3c0 .99-.17 1.67-.5 2.07-.34.4-.96.72-1.88.96a30.48 30.48 0 0 1-7.85 1.01ZM671.89 163.9c7.66 0 11.5-5.42 11.5-16.24 0-10.76-3.84-16.14-11.5-16.14-7.68 0-11.52 5.38-11.52 16.14 0 10.82 3.84 16.24 11.52 16.24Zm0 8.53c-7.07 0-12.58-2.19-16.54-6.56-3.96-4.37-5.94-10.44-5.94-18.2 0-7.77 1.98-13.82 5.94-18.17 3.96-4.34 9.47-6.5 16.54-6.5 7.06 0 12.57 2.16 16.53 6.5 3.96 4.35 5.94 10.4 5.94 18.16 0 7.77-1.98 13.84-5.94 18.2-3.96 4.38-9.47 6.57-16.53 6.57ZM704.04 171.05c-1.34 0-2.01-.67-2.01-2.02V126.4c0-1.35.67-2.02 2-2.02h4.85c.86 0 1.45.12 1.78.36.34.25.57.71.69 1.38l1.1 5.23c2.43-2.7 4.71-4.59 6.84-5.69a14.92 14.92 0 0 1 6.95-1.65h.36c.8 0 1.45.08 1.97.23.52.15.88.42 1.1.78.2.37.32 1.04.32 2.02v4.95c0 1.29-.55 1.93-1.65 1.93-.36 0-.87-.03-1.5-.1-.64-.05-1.33-.09-2.07-.09-4.5 0-8.49 1.16-11.96 3.49v31.82c0 1.35-.67 2.02-2.01 2.02h-6.76ZM763.5 143.08v-.73c0-3.73-.81-6.58-2.43-8.54-1.6-1.95-3.97-2.93-7.08-2.93-3.29 0-5.97 1.1-8.03 3.3-2.08 2.2-3.26 5.17-3.57 8.9h21.1Zm-7.68 29.35c-7.67 0-13.5-2.08-17.45-6.24-3.96-4.16-5.94-10.21-5.94-18.16 0-7.88 1.94-14.03 5.8-18.44 3.87-4.4 9.28-6.6 16.22-6.6 5.97 0 10.55 1.64 13.75 4.91 3.2 3.27 4.8 7.9 4.8 13.9 0 2.07-.15 4.25-.46 6.5-.12.8-.35 1.33-.69 1.61-.33.27-.77.42-1.32.42h-28.14c.18 4.64 1.48 8.05 3.88 10.22s6.11 3.26 11.1 3.26c3.65 0 7.5-.59 11.51-1.75l1.1-.28a3 3 0 0 1 .64-.08c.92 0 1.37.6 1.37 1.83v3.3c0 .92-.14 1.57-.4 1.97-.28.4-.9.78-1.88 1.15a36.71 36.71 0 0 1-13.89 2.48Z"/></svg>