<svg xmlns="http://www.w3.org/2000/svg" fill="none" viewBox="0 0 886 271"><rect width="883" height="268" x="1.5" y="1.5" fill="#fff" stroke="#090909" stroke-width="3" rx="25.5"/><mask id="mask0_1_69" width="880" height="265" x="3" y="3" maskUnits="userSpaceOnUse" style="mask-type:luminance"><path fill="#fff" d="M3 3h879.8v265H3V3Z"/></mask><g mask="url(#mask0_1_69)"><path fill="#5F6368" d="M439.54 70.68c3.29-3.47 7.47-5.2 12.56-5.2 5.1 0 9.29 1.73 12.57 5.2 3.29 3.42 4.93 7.73 4.93 12.91 0 5.19-1.64 9.52-4.93 12.99-3.28 3.42-7.47 5.13-12.56 5.13-5.1 0-9.28-1.7-12.57-5.14-3.29-3.46-4.93-7.79-4.93-12.98 0-5.18 1.64-9.49 4.93-12.9Zm4.72 21.87a10.74 10.74 0 0 0 7.84 3.33c3.01 0 5.6-1.11 7.78-3.33 2.22-2.27 3.33-5.25 3.33-8.96 0-3.7-1.1-6.66-3.33-8.88a10.4 10.4 0 0 0-7.77-3.4c-3.01 0-5.63 1.13-7.85 3.4-2.17 2.22-3.26 5.18-3.26 8.88 0 3.7 1.08 6.69 3.26 8.96Zm-17.2 8.6c-3.55 0-6.29-.94-8.19-2.84-1.85-1.9-2.77-4.58-2.77-8.06V72.41h-5.97v-5.83h5.97V56.17h6.39v10.41h8.33v5.83h-8.34v17.36c0 3.7 1.54 5.56 4.59 5.56a6.8 6.8 0 0 0 2.91-.56l2.23 5.48c-1.4.6-3.1.9-5.14.9Zm-55.73.56c-4.4 0-8.19-1.74-11.39-5.2-3.19-3.47-4.79-7.78-4.79-12.92s1.6-9.44 4.8-12.9c3.19-3.48 6.99-5.22 11.38-5.22 2.6 0 4.9.56 6.94 1.67a11.73 11.73 0 0 1 4.66 4.17h.27l-.27-4.73V50.9h6.38v49.7h-6.1v-4.72h-.28a11.72 11.72 0 0 1-4.66 4.16 14.27 14.27 0 0 1-6.94 1.67Zm1.04-5.83a10.07 10.07 0 0 0 7.63-3.34c2.14-2.21 3.2-5.2 3.2-8.95 0-3.75-1.06-6.73-3.19-8.96a10.07 10.07 0 0 0-7.64-3.32 10.1 10.1 0 0 0-7.63 3.4c-2.13 2.22-3.2 5.18-3.2 8.88 0 3.7 1.06 6.69 3.2 8.96a10.2 10.2 0 0 0 7.63 3.33Zm-40.7 5.83c-4.4 0-8.19-1.74-11.38-5.2-3.2-3.47-4.8-7.78-4.8-12.92s1.6-9.44 4.8-12.9c3.19-3.48 6.98-5.22 11.38-5.22 2.6 0 4.9.56 6.94 1.67a11.77 11.77 0 0 1 4.65 4.17h.28l-.28-4.73V50.9h6.4v49.7h-6.12v-4.72h-.28a11.72 11.72 0 0 1-4.65 4.16 14.27 14.27 0 0 1-6.94 1.67Zm1.04-5.83a10.07 10.07 0 0 0 7.64-3.34c2.13-2.21 3.2-5.2 3.2-8.95 0-3.75-1.07-6.73-3.2-8.96a10.07 10.07 0 0 0-7.64-3.32 10.1 10.1 0 0 0-7.63 3.4c-2.13 2.22-3.2 5.18-3.2 8.88 0 3.7 1.06 6.69 3.2 8.96a10.2 10.2 0 0 0 7.63 3.33Zm-39.7 5.83c-3.6 0-6.64-1.04-9.09-3.12-2.41-2.09-3.61-4.84-3.61-8.26 0-3.7 1.43-6.6 4.3-8.68 2.87-2.13 6.41-3.2 10.63-3.2 3.74 0 6.82.7 9.23 2.09v-.98a7.5 7.5 0 0 0-2.57-5.96 9.15 9.15 0 0 0-6.32-2.3 10 10 0 0 0-5.07 1.32 6.84 6.84 0 0 0-3.05 3.62l-5.83-2.5c.79-2.04 2.33-3.92 4.65-5.62 2.32-1.77 5.37-2.65 9.16-2.65 4.35 0 7.96 1.27 10.83 3.82s4.3 6.13 4.3 10.76v20.55h-6.1v-4.72h-.28c-2.55 3.89-6.27 5.83-11.17 5.83Zm1.05-5.83c2.63 0 5.01-.97 7.14-2.91a9.24 9.24 0 0 0 3.27-7.02c-1.8-1.48-4.52-2.22-8.13-2.22-3.1 0-5.43.67-7 2.01a6.04 6.04 0 0 0-2.37 4.72c0 1.67.72 2.99 2.16 3.97a8.58 8.58 0 0 0 4.93 1.45Zm457.9 41.89h10.2v38.14h.36l17.28-17.37h12.78v.55L775.48 176l18.2 27.03v.55h-12.13l-13.33-20.5-6.06 5.98v14.52h-10.2v-65.81Zm-30.84 19.3a23.9 23.9 0 0 1 9.46 1.84 21.4 21.4 0 0 1 7.45 4.96 22.82 22.82 0 0 1 4.87 7.63 25.68 25.68 0 0 1 1.75 9.56c.03 3.27-.56 6.51-1.75 9.56a22.53 22.53 0 0 1-12.32 12.68 24.97 24.97 0 0 1-9.46 1.75 25 25 0 0 1-9.47-1.75 22.6 22.6 0 0 1-7.44-5.05 22.97 22.97 0 0 1-4.88-7.63 25.83 25.83 0 0 1-1.74-9.56c0-3.43.58-6.62 1.75-9.56a22.96 22.96 0 0 1 4.87-7.63 21.48 21.48 0 0 1 7.44-4.96c3-1.25 6.22-1.88 9.47-1.84Zm0 38.51c1.72 0 3.37-.34 4.96-1 1.6-.69 3-1.63 4.23-2.86a13.03 13.03 0 0 0 3.04-4.5c.73-1.84 1.1-3.9 1.1-6.16 0-2.27-.37-4.3-1.1-6.06a12.8 12.8 0 0 0-3.04-4.6 13.2 13.2 0 0 0-9.19-3.87c-1.7 0-3.4.35-4.96 1.02-1.6.68-3.07 1.64-4.32 2.84a13.37 13.37 0 0 0-2.94 4.6 15.74 15.74 0 0 0-1.1 6.07c0 2.27.36 4.32 1.1 6.16a13.6 13.6 0 0 0 2.94 4.5 14.34 14.34 0 0 0 4.32 2.85 12.6 12.6 0 0 0 4.96 1.01Zm-52.24-38.5c3.43 0 6.59.6 9.47 1.83a21.46 21.46 0 0 1 7.44 4.96 22.91 22.91 0 0 1 4.87 7.63 25.7 25.7 0 0 1 1.75 9.56 25.7 25.7 0 0 1-1.75 9.56 22.96 22.96 0 0 1-4.87 7.63 22.6 22.6 0 0 1-7.44 5.05 25 25 0 0 1-9.47 1.75c-3.43 0-6.59-.58-9.46-1.75a22.54 22.54 0 0 1-7.45-5.05 22.97 22.97 0 0 1-4.87-7.63 25.72 25.72 0 0 1-1.75-9.56c0-3.43.58-6.62 1.75-9.56a22.96 22.96 0 0 1 4.87-7.63 21.42 21.42 0 0 1 7.45-4.96 23.9 23.9 0 0 1 9.46-1.84Zm0 38.5c1.72 0 3.37-.34 4.96-1 1.6-.69 3-1.63 4.23-2.86a12.96 12.96 0 0 0 3.03-4.5c.74-1.84 1.1-3.9 1.1-6.16 0-2.27-.36-4.3-1.1-6.06-.66-1.74-1.7-3.31-3.03-4.6a13.17 13.17 0 0 0-9.2-3.87c-1.7 0-3.39.35-4.96 1.02-1.6.68-3.06 1.64-4.31 2.84a13.52 13.52 0 0 0-2.95 4.6 15.82 15.82 0 0 0-1.1 6.07c0 2.27.37 4.32 1.1 6.16a13.76 13.76 0 0 0 2.95 4.5 14.47 14.47 0 0 0 4.31 2.85c1.6.67 3.25 1.01 4.97 1.01Zm-74.99-57.81h10.2v20.31l-.55 6.25h.55a15.13 15.13 0 0 1 5.61-5.05 17.54 17.54 0 0 1 9-2.2c2.89 0 5.61.6 8.19 1.83a20.42 20.42 0 0 1 6.89 4.96 25.32 25.32 0 0 1 6.44 17.19 24.88 24.88 0 0 1-6.44 17.19 21.56 21.56 0 0 1-6.9 5.05 19.6 19.6 0 0 1-8.17 1.75c-3.5 0-6.5-.7-9-2.12a15.8 15.8 0 0 1-5.62-5.14h-.55v5.79h-9.65v-65.81Zm22.89 57.81c1.71 0 3.37-.34 4.96-1a12.04 12.04 0 0 0 4.23-2.86 14.83 14.83 0 0 0 2.94-4.6c.74-1.77 1.1-3.8 1.1-6.06 0-2.27-.37-4.3-1.1-6.06a13.7 13.7 0 0 0-2.94-4.5 11.42 11.42 0 0 0-4.23-2.95 12.86 12.86 0 0 0-10.02 0c-1.59.67-3 1.62-4.23 2.84a15.72 15.72 0 0 0-3.95 10.66c0 2.28.37 4.33 1.1 6.17a14.67 14.67 0 0 0 2.85 4.5 13.4 13.4 0 0 0 4.23 2.85c1.6.67 3.28 1.01 5.06 1.01Zm-31.34-2.76a24.43 24.43 0 0 1-8.08 8.73c-3.5 2.34-7.78 3.5-12.87 3.5-3.37 0-6.5-.58-9.38-1.75a22.84 22.84 0 0 1-12.22-12.59 25.95 25.95 0 0 1-1.75-9.65c0-3.25.56-6.3 1.66-9.2a22.24 22.24 0 0 1 21.23-14.8c3.5.01 6.58.6 9.28 1.76a19.6 19.6 0 0 1 6.99 4.87 20.8 20.8 0 0 1 4.32 7.53 28.67 28.67 0 0 1 1.56 9.65v.83a4.1 4.1 0 0 0-.09.83c-.06.24-.1.49-.1.73h-34.65c.19 2.15.7 4.02 1.57 5.61.86 1.6 1.9 2.92 3.12 3.95 1.3 1.04 2.7 1.8 4.23 2.3 1.53.5 3.03.74 4.5.74 2.94 0 5.37-.7 7.26-2.12 1.9-1.4 3.5-3.19 4.7-5.24l8.72 4.32Zm-9.46-17.37a11.32 11.32 0 0 0-.92-3.03 8.1 8.1 0 0 0-2.11-3.13 11.12 11.12 0 0 0-3.68-2.48c-1.47-.67-3.28-1-5.42-1-2.95 0-5.49.88-7.63 2.66a12.74 12.74 0 0 0-4.23 6.98h23.99ZM464.1 158.54h9.65v6.07h.55a16.23 16.23 0 0 1 5.89-5.42c2.43-1.4 5.19-2.13 8-2.12 3.36 0 6.25.8 8.63 2.4a13.4 13.4 0 0 1 5.33 6.06 19.21 19.21 0 0 1 6.16-5.98c2.57-1.65 5.67-2.48 9.28-2.48 2.76 0 5.15.46 7.17 1.38a12.5 12.5 0 0 1 4.97 3.68 15.8 15.8 0 0 1 3.03 5.78c.67 2.21 1 4.7 1 7.45v28.22h-10.19V177.1c0-3.92-.77-6.64-2.3-8.17-1.47-1.6-3.64-2.4-6.52-2.4a9.3 9.3 0 0 0-4.5 1.1 10.45 10.45 0 0 0-3.31 3.04 13.51 13.51 0 0 0-2.13 4.33c-.5 1.7-.74 3.46-.73 5.23v23.35h-10.2V177.1c0-3.92-.79-6.64-2.38-8.17-1.54-1.6-3.77-2.4-6.71-2.4a8.6 8.6 0 0 0-4.32 1.1 10.45 10.45 0 0 0-3.31 3.04 13.5 13.5 0 0 0-2.12 4.33 18.3 18.3 0 0 0-.73 5.23v23.35H464.1v-45.04Zm-30.39-1.47c3.44 0 6.6.61 9.48 1.84a21.44 21.44 0 0 1 7.44 4.96 22.93 22.93 0 0 1 4.87 7.63 25.78 25.78 0 0 1 1.75 9.56c0 3.43-.59 6.62-1.75 9.56a22.55 22.55 0 0 1-12.31 12.68 25.04 25.04 0 0 1-9.48 1.75c-3.42 0-6.58-.58-9.46-1.75a22.59 22.59 0 0 1-7.44-5.05 22.9 22.9 0 0 1-4.88-7.63 25.75 25.75 0 0 1-1.75-9.56c0-3.43.59-6.62 1.75-9.56a22.9 22.9 0 0 1 4.88-7.63 21.47 21.47 0 0 1 7.44-4.96c3-1.25 6.22-1.88 9.46-1.84Zm0 38.51c1.72 0 3.38-.34 4.97-1 1.6-.69 3-1.63 4.22-2.86a13.04 13.04 0 0 0 3.04-4.5c.74-1.84 1.1-3.9 1.1-6.16 0-2.27-.37-4.3-1.1-6.06a12.8 12.8 0 0 0-3.04-4.6 13.2 13.2 0 0 0-9.18-3.87c-1.7 0-3.4.35-4.97 1.02-1.6.68-3.06 1.64-4.31 2.84a13.51 13.51 0 0 0-2.95 4.6 15.74 15.74 0 0 0-1.1 6.07c0 2.27.37 4.32 1.1 6.16a13.76 13.76 0 0 0 2.94 4.5 14.32 14.32 0 0 0 4.32 2.85c1.6.67 3.25 1.01 4.96 1.01Zm-53.53-37.04h9.65v6.8h.55a12.57 12.57 0 0 1 2.2-3.21 15.56 15.56 0 0 1 6.99-4.23c1.35-.43 2.64-.64 3.86-.64 1.47 0 2.73.12 3.77.36 1.04.25 2 .59 2.85 1l-2.94 9.48a8.4 8.4 0 0 0-2.3-.65c-.96-.2-1.95-.29-2.94-.27a10.54 10.54 0 0 0-8.18 3.77 13.44 13.44 0 0 0-2.48 4.13c-.55 1.6-.83 3.29-.83 5.06v23.44h-10.2v-45.04Zm-51.25-20.77h10.2v19.58l-.55 7.26h.55a15 15 0 0 1 5.7-5.33c2.51-1.47 5.3-2.2 8.36-2.2 2.94 0 5.49.45 7.63 1.37 2.14.86 3.93 2.11 5.33 3.77a15.89 15.89 0 0 1 3.13 5.97c.67 2.27 1 4.78 1 7.54v27.85h-10.2V177.1c0-3.73-.91-6.43-2.75-8.08a9.61 9.61 0 0 0-6.8-2.48 9.54 9.54 0 0 0-4.78 1.19 12.06 12.06 0 0 0-3.59 3.04 14.89 14.89 0 0 0-2.3 4.4 18 18 0 0 0-.73 5.15v23.26h-10.2v-65.81Zm-7.37 54.32c-.88 1.8-1.96 3.5-3.22 5.05a20.29 20.29 0 0 1-10.2 6.89c-2.36.7-4.8 1.04-7.26 1.02a25 25 0 0 1-9.47-1.75 22.58 22.58 0 0 1-7.45-5.05 22.91 22.91 0 0 1-4.87-7.63 25.75 25.75 0 0 1-1.75-9.56c0-3.43.59-6.62 1.75-9.56a22.9 22.9 0 0 1 4.88-7.63 21.46 21.46 0 0 1 7.44-4.96c3-1.25 6.22-1.88 9.47-1.84 2.63 0 5.02.34 7.17 1 2.2.69 4.13 1.64 5.78 2.86a19.06 19.06 0 0 1 4.42 4.13 21.25 21.25 0 0 1 2.94 4.88l-9.38 3.95a12.8 12.8 0 0 0-4.31-5.42c-1.84-1.3-4.17-1.93-6.99-1.93a12.75 12.75 0 0 0-9.1 4.04 14.44 14.44 0 0 0-2.85 4.5c-.67 1.78-1 3.77-1 5.98 0 2.2.33 4.2 1 5.97.74 1.78 1.68 3.3 2.85 4.6 1.22 1.22 2.6 2.2 4.13 2.94 1.6.67 3.25 1.01 4.97 1.01 2.82 0 5.21-.64 7.17-1.93a13.34 13.34 0 0 0 4.69-5.51l9.19 3.95Z"/><path fill="url(#paint0_linear_1_69)" d="m66.9 95.52 10.97 33.32 23.52 26.26 34.5-59.58h68.6c-13.72-23.52-39.2-39.6-68.6-39.6a80.05 80.05 0 0 0-69 39.6Z"/><path fill="url(#paint1_linear_1_69)" d="m135.5 214.68 23.52-26.26L170 155.1h-68.98L66.5 95.52a79.33 79.33 0 0 0 0 79.18c14.9 25.48 41.55 39.99 69 39.99h-.01Z"/><path fill="url(#paint2_linear_1_69)" d="M204.1 95.52h-68.6L170 155.1l-34.5 59.59c27.44 0 54.1-14.12 68.6-39.6a80.07 80.07 0 0 0 0-79.57Z"/><path fill="#fff" d="M135.5 174.7a39.6 39.6 0 1 0 0-79.18 39.6 39.6 0 0 0 0 79.18Z"/><path fill="#1A73E8" d="M135.5 167.25a32.13 32.13 0 0 0 29.7-44.44 32.14 32.14 0 1 0-29.7 44.44Z"/></g><defs><linearGradient id="paint0_linear_1_69" x1="66.75" x2="204.09" y1="105.53" y2="105.53" gradientUnits="userSpaceOnUse"><stop stop-color="#D93025"/><stop offset="1" stop-color="#EA4335"/></linearGradient><linearGradient id="paint1_linear_1_69" x1="144" x2="75.32" y1="209.6" y2="90.66" gradientUnits="userSpaceOnUse"><stop stop-color="#1E8E3E"/><stop offset="1" stop-color="#34A853"/></linearGradient><linearGradient id="paint2_linear_1_69" x1="192.73" x2="124.06" y1="95.46" y2="214.41" gradientUnits="userSpaceOnUse"><stop stop-color="#FBBC04"/><stop offset="1" stop-color="#FCC934"/></linearGradient></defs></svg>