<svg xmlns="http://www.w3.org/2000/svg" fill="none" viewBox="0 0 747 271"><path fill="#fff" stroke="#090909" stroke-width="3" d="M27.98 1.5A25.5 25.5 0 0 0 2.48 27v217a25.5 25.5 0 0 0 25.5 25.5h691.11a25.5 25.5 0 0 0 25.5-25.5V27a25.5 25.5 0 0 0-25.5-25.5H27.98Z"/><mask id="path-2-inside-1_1_95" fill="#fff"><path d="M261.84 160.1h18.23l-6.52-17.39c-.9-2.4-1.79-5.05-2.66-7.96-.78 2.57-1.64 5.2-2.57 7.88l-6.48 17.47Zm21.35 8.25h-24.42l-5.98 16.25h-10.74l23.92-60.7h10.14l24.47 60.7h-11.29l-6.1-16.25ZM332.25 173.57c2.12-2.84 3.18-6.98 3.18-12.43 0-5.05-.87-8.72-2.63-11a8.41 8.41 0 0 0-7.01-3.4c-2.02 0-3.89.47-5.6 1.42a21.07 21.07 0 0 0-4.88 3.8v24.22c1.04.5 2.24.9 3.62 1.2 1.37.3 2.74.44 4.08.44 4.05 0 7.12-1.42 9.24-4.25Zm-27.34-23.1c0-3.36-.12-7.05-.34-11.07h9.77c.36 1.87.62 3.79.76 5.74 4.04-4.38 8.67-6.58 13.9-6.58 3.02 0 5.83.76 8.41 2.28 2.58 1.53 4.67 3.93 6.25 7.21 1.6 3.28 2.38 7.45 2.38 12.5 0 5.29-.9 9.8-2.71 13.54a19.38 19.38 0 0 1-7.6 8.5 21.75 21.75 0 0 1-11.29 2.9c-3.08 0-6.13-.52-9.13-1.55v18.68l-10.4.88v-53.04ZM379.7 173.57c2.12-2.84 3.18-6.98 3.18-12.43 0-5.05-.87-8.72-2.63-11a8.41 8.41 0 0 0-7-3.4c-2.03 0-3.9.47-5.6 1.42a21.06 21.06 0 0 0-4.9 3.8v24.22c1.05.5 2.25.9 3.63 1.2 1.37.3 2.73.44 4.08.44 4.04 0 7.12-1.42 9.24-4.25Zm-27.34-23.1c0-3.36-.12-7.05-.34-11.07h9.77a48 48 0 0 1 .76 5.74c4.04-4.38 8.67-6.58 13.9-6.58 3.02 0 5.83.76 8.41 2.28 2.58 1.53 4.67 3.93 6.26 7.21 1.58 3.28 2.38 7.45 2.38 12.5 0 5.29-.91 9.8-2.72 13.54a19.38 19.38 0 0 1-7.6 8.5 21.75 21.75 0 0 1-11.29 2.9c-3.08 0-6.13-.52-9.13-1.55v18.68l-10.4.88v-53.04ZM412.6 181.74a25.16 25.16 0 0 1-10.36-10.63c-2.41-4.6-3.62-10.05-3.62-16.33 0-6.82 1.39-12.6 4.17-17.37a26.77 26.77 0 0 1 11.35-10.72 35.58 35.58 0 0 1 16.1-3.59 42.74 42.74 0 0 1 18.95 4.32l-2.65 7.96c-5.53-2.63-10.8-3.94-15.83-3.94-4.24 0-7.95.9-11.14 2.7a18.4 18.4 0 0 0-7.43 7.94c-1.77 3.5-2.65 7.71-2.65 12.65 0 4.33.68 8.17 2.03 11.53 1.37 3.35 3.52 6 6.45 7.96 2.93 1.95 6.63 2.93 11.1 2.93 2.01 0 4.04-.17 6.06-.5 2.02-.34 3.91-.83 5.68-1.47V162.9h-14.1v-8.04h24.2v25.56a54.3 54.3 0 0 1-22.4 5.02c-6.11 0-11.42-1.23-15.91-3.7ZM481.65 176.23a16.64 16.64 0 0 0 5.3-3.86V164c-2.83-.3-5.15-.46-6.95-.46-4.3 0-7.26.7-8.9 2.08a6.92 6.92 0 0 0-2.47 5.59c0 2.24.6 3.89 1.8 4.96 1.19 1.08 2.8 1.62 4.86 1.62 2.07 0 4.2-.52 6.36-1.55Zm6.23 8.38c-.37-1.77-.6-3.76-.72-6a20.08 20.08 0 0 1-6.25 4.84 18.66 18.66 0 0 1-8.7 2c-2.6 0-4.99-.52-7.14-1.54a11.88 11.88 0 0 1-5.11-4.6 14.08 14.08 0 0 1-1.9-7.53c0-4.38 1.59-7.88 4.76-10.49 3.18-2.61 8.47-3.92 15.88-3.92 2.78 0 5.53.2 8.25.59v-.88c0-4-.86-6.8-2.57-8.44-1.71-1.63-4.17-2.45-7.37-2.45-2.21 0-4.59.32-7.11.96a37.66 37.66 0 0 0-6.66 2.3l-1.64-7.54c1.85-.83 4.3-1.6 7.33-2.3 3.03-.7 6.23-1.05 9.6-1.05 3.93 0 7.27.6 10.02 1.78a13.12 13.12 0 0 1 6.44 6.12c1.55 2.9 2.32 6.78 2.32 11.67v17.97c0 1.87.11 4.7.33 8.5h-9.76ZM505.29 173.75v-53.41l10.36-.84v52.41c0 1.93.33 3.29.99 4.09.65.8 1.7 1.2 3.13 1.2.65 0 1.56-.16 2.74-.47l1.22 7.42c-.98.39-2.18.7-3.6.94-1.42.23-2.76.35-4.02.35-7.22 0-10.82-3.9-10.82-11.69ZM531.18 173.75v-53.41l10.36-.84v52.41c0 1.93.33 3.29 1 4.09.65.8 1.7 1.2 3.13 1.2.64 0 1.56-.16 2.74-.47l1.22 7.42c-.99.39-2.19.7-3.6.94-1.42.23-2.76.35-4.02.35-7.22 0-10.83-3.9-10.83-11.69ZM582.09 156.75c-.21-3.6-1.12-6.31-2.75-8.11-1.62-1.8-3.8-2.7-6.52-2.7-2.64 0-4.84.9-6.6 2.72-1.74 1.82-2.9 4.51-3.43 8.09h19.3Zm10.13 6.57H562.5c.47 9.47 5 14.2 13.6 14.2 2.13 0 4.32-.25 6.55-.77 2.23-.52 4.37-1.2 6.42-2.07l2.28 7.08c-5.1 2.46-10.8 3.68-17.14 3.68-4.84 0-8.9-.9-12.21-2.72a17.46 17.46 0 0 1-7.48-7.84c-1.67-3.4-2.5-7.5-2.5-12.31 0-5 .88-9.3 2.65-12.9a19.22 19.22 0 0 1 7.39-8.26c3.15-1.9 6.8-2.85 10.93-2.85 4.3 0 7.87 1 10.75 3s5 4.66 6.4 7.98c1.39 3.32 2.09 7 2.09 11.02v2.76ZM600.1 150.75c0-2.48-.13-6.26-.35-11.35h9.74a132.06 132.06 0 0 1 .79 8.76 38.03 38.03 0 0 1 3.56-5 14.63 14.63 0 0 1 4.09-3.32 10.9 10.9 0 0 1 5.33-1.28c1.6 0 2.96.17 4.11.5l-1.3 8.97c-1-.3-2.13-.46-3.37-.46-2.44 0-4.58.62-6.4 1.87-1.82 1.24-3.77 3.28-5.85 6.13v29.03H600.1v-33.85ZM633.21 203.1a25.08 25.08 0 0 1-3.74-.9l1.9-7.54c.69.2 1.58.38 2.65.57 1.06.18 2.07.27 3.03.27 4.6 0 8.06-2.95 10.35-8.84l.68-1.68-16.76-45.58h11.16l8.43 25.47a82.69 82.69 0 0 1 2.64 10.01c.8-3.26 1.71-6.53 2.78-9.8l8.55-25.68h10.48l-16.7 45.8a47.02 47.02 0 0 1-5.11 10.47 17.84 17.84 0 0 1-6.45 5.9c-2.5 1.29-5.49 1.93-9 1.93-1.74 0-3.37-.13-4.89-.4Z"/></mask><path fill="#090909" d="M261.84 160.1h18.23l-6.52-17.39c-.9-2.4-1.79-5.05-2.66-7.96-.78 2.57-1.64 5.2-2.57 7.88l-6.48 17.47Zm21.35 8.25h-24.42l-5.98 16.25h-10.74l23.92-60.7h10.14l24.47 60.7h-11.29l-6.1-16.25ZM332.25 173.57c2.12-2.84 3.18-6.98 3.18-12.43 0-5.05-.87-8.72-2.63-11a8.41 8.41 0 0 0-7.01-3.4c-2.02 0-3.89.47-5.6 1.42a21.07 21.07 0 0 0-4.88 3.8v24.22c1.04.5 2.24.9 3.62 1.2 1.37.3 2.74.44 4.08.44 4.05 0 7.12-1.42 9.24-4.25Zm-27.34-23.1c0-3.36-.12-7.05-.34-11.07h9.77c.36 1.87.62 3.79.76 5.74 4.04-4.38 8.67-6.58 13.9-6.58 3.02 0 5.83.76 8.41 2.28 2.58 1.53 4.67 3.93 6.25 7.21 1.6 3.28 2.38 7.45 2.38 12.5 0 5.29-.9 9.8-2.71 13.54a19.38 19.38 0 0 1-7.6 8.5 21.75 21.75 0 0 1-11.29 2.9c-3.08 0-6.13-.52-9.13-1.55v18.68l-10.4.88v-53.04ZM379.7 173.57c2.12-2.84 3.18-6.98 3.18-12.43 0-5.05-.87-8.72-2.63-11a8.41 8.41 0 0 0-7-3.4c-2.03 0-3.9.47-5.6 1.42a21.06 21.06 0 0 0-4.9 3.8v24.22c1.05.5 2.25.9 3.63 1.2 1.37.3 2.73.44 4.08.44 4.04 0 7.12-1.42 9.24-4.25Zm-27.34-23.1c0-3.36-.12-7.05-.34-11.07h9.77a48 48 0 0 1 .76 5.74c4.04-4.38 8.67-6.58 13.9-6.58 3.02 0 5.83.76 8.41 2.28 2.58 1.53 4.67 3.93 6.26 7.21 1.58 3.28 2.38 7.45 2.38 12.5 0 5.29-.91 9.8-2.72 13.54a19.38 19.38 0 0 1-7.6 8.5 21.75 21.75 0 0 1-11.29 2.9c-3.08 0-6.13-.52-9.13-1.55v18.68l-10.4.88v-53.04ZM412.6 181.74a25.16 25.16 0 0 1-10.36-10.63c-2.41-4.6-3.62-10.05-3.62-16.33 0-6.82 1.39-12.6 4.17-17.37a26.77 26.77 0 0 1 11.35-10.72 35.58 35.58 0 0 1 16.1-3.59 42.74 42.74 0 0 1 18.95 4.32l-2.65 7.96c-5.53-2.63-10.8-3.94-15.83-3.94-4.24 0-7.95.9-11.14 2.7a18.4 18.4 0 0 0-7.43 7.94c-1.77 3.5-2.65 7.71-2.65 12.65 0 4.33.68 8.17 2.03 11.53 1.37 3.35 3.52 6 6.45 7.96 2.93 1.95 6.63 2.93 11.1 2.93 2.01 0 4.04-.17 6.06-.5 2.02-.34 3.91-.83 5.68-1.47V162.9h-14.1v-8.04h24.2v25.56a54.3 54.3 0 0 1-22.4 5.02c-6.11 0-11.42-1.23-15.91-3.7ZM481.65 176.23a16.64 16.64 0 0 0 5.3-3.86V164c-2.83-.3-5.15-.46-6.95-.46-4.3 0-7.26.7-8.9 2.08a6.92 6.92 0 0 0-2.47 5.59c0 2.24.6 3.89 1.8 4.96 1.19 1.08 2.8 1.62 4.86 1.62 2.07 0 4.2-.52 6.36-1.55Zm6.23 8.38c-.37-1.77-.6-3.76-.72-6a20.08 20.08 0 0 1-6.25 4.84 18.66 18.66 0 0 1-8.7 2c-2.6 0-4.99-.52-7.14-1.54a11.88 11.88 0 0 1-5.11-4.6 14.08 14.08 0 0 1-1.9-7.53c0-4.38 1.59-7.88 4.76-10.49 3.18-2.61 8.47-3.92 15.88-3.92 2.78 0 5.53.2 8.25.59v-.88c0-4-.86-6.8-2.57-8.44-1.71-1.63-4.17-2.45-7.37-2.45-2.21 0-4.59.32-7.11.96a37.66 37.66 0 0 0-6.66 2.3l-1.64-7.54c1.85-.83 4.3-1.6 7.33-2.3 3.03-.7 6.23-1.05 9.6-1.05 3.93 0 7.27.6 10.02 1.78a13.12 13.12 0 0 1 6.44 6.12c1.55 2.9 2.32 6.78 2.32 11.67v17.97c0 1.87.11 4.7.33 8.5h-9.76ZM505.29 173.75v-53.41l10.36-.84v52.41c0 1.93.33 3.29.99 4.09.65.8 1.7 1.2 3.13 1.2.65 0 1.56-.16 2.74-.47l1.22 7.42c-.98.39-2.18.7-3.6.94-1.42.23-2.76.35-4.02.35-7.22 0-10.82-3.9-10.82-11.69ZM531.18 173.75v-53.41l10.36-.84v52.41c0 1.93.33 3.29 1 4.09.65.8 1.7 1.2 3.13 1.2.64 0 1.56-.16 2.74-.47l1.22 7.42c-.99.39-2.19.7-3.6.94-1.42.23-2.76.35-4.02.35-7.22 0-10.83-3.9-10.83-11.69ZM582.09 156.75c-.21-3.6-1.12-6.31-2.75-8.11-1.62-1.8-3.8-2.7-6.52-2.7-2.64 0-4.84.9-6.6 2.72-1.74 1.82-2.9 4.51-3.43 8.09h19.3Zm10.13 6.57H562.5c.47 9.47 5 14.2 13.6 14.2 2.13 0 4.32-.25 6.55-.77 2.23-.52 4.37-1.2 6.42-2.07l2.28 7.08c-5.1 2.46-10.8 3.68-17.14 3.68-4.84 0-8.9-.9-12.21-2.72a17.46 17.46 0 0 1-7.48-7.84c-1.67-3.4-2.5-7.5-2.5-12.31 0-5 .88-9.3 2.65-12.9a19.22 19.22 0 0 1 7.39-8.26c3.15-1.9 6.8-2.85 10.93-2.85 4.3 0 7.87 1 10.75 3s5 4.66 6.4 7.98c1.39 3.32 2.09 7 2.09 11.02v2.76ZM600.1 150.75c0-2.48-.13-6.26-.35-11.35h9.74a132.06 132.06 0 0 1 .79 8.76 38.03 38.03 0 0 1 3.56-5 14.63 14.63 0 0 1 4.09-3.32 10.9 10.9 0 0 1 5.33-1.28c1.6 0 2.96.17 4.11.5l-1.3 8.97c-1-.3-2.13-.46-3.37-.46-2.44 0-4.58.62-6.4 1.87-1.82 1.24-3.77 3.28-5.85 6.13v29.03H600.1v-33.85ZM633.21 203.1a25.08 25.08 0 0 1-3.74-.9l1.9-7.54c.69.2 1.58.38 2.65.57 1.06.18 2.07.27 3.03.27 4.6 0 8.06-2.95 10.35-8.84l.68-1.68-16.76-45.58h11.16l8.43 25.47a82.69 82.69 0 0 1 2.64 10.01c.8-3.26 1.71-6.53 2.78-9.8l8.55-25.68h10.48l-16.7 45.8a47.02 47.02 0 0 1-5.11 10.47 17.84 17.84 0 0 1-6.45 5.9c-2.5 1.29-5.49 1.93-9 1.93-1.74 0-3.37-.13-4.89-.4Z"/><path stroke="#090909" stroke-width="1.4" d="M261.84 160.1h18.23l-6.52-17.39c-.9-2.4-1.79-5.05-2.66-7.96-.78 2.57-1.64 5.2-2.57 7.88l-6.48 17.47Zm21.35 8.25h-24.42l-5.98 16.25h-10.74l23.92-60.7h10.14l24.47 60.7h-11.29l-6.1-16.25ZM332.25 173.57c2.12-2.84 3.18-6.98 3.18-12.43 0-5.05-.87-8.72-2.63-11a8.41 8.41 0 0 0-7.01-3.4c-2.02 0-3.89.47-5.6 1.42a21.07 21.07 0 0 0-4.88 3.8v24.22c1.04.5 2.24.9 3.62 1.2 1.37.3 2.74.44 4.08.44 4.05 0 7.12-1.42 9.24-4.25Zm-27.34-23.1c0-3.36-.12-7.05-.34-11.07h9.77c.36 1.87.62 3.79.76 5.74 4.04-4.38 8.67-6.58 13.9-6.58 3.02 0 5.83.76 8.41 2.28 2.58 1.53 4.67 3.93 6.25 7.21 1.6 3.28 2.38 7.45 2.38 12.5 0 5.29-.9 9.8-2.71 13.54a19.38 19.38 0 0 1-7.6 8.5 21.75 21.75 0 0 1-11.29 2.9c-3.08 0-6.13-.52-9.13-1.55v18.68l-10.4.88v-53.04ZM379.7 173.57c2.12-2.84 3.18-6.98 3.18-12.43 0-5.05-.87-8.72-2.63-11a8.41 8.41 0 0 0-7-3.4c-2.03 0-3.9.47-5.6 1.42a21.06 21.06 0 0 0-4.9 3.8v24.22c1.05.5 2.25.9 3.63 1.2 1.37.3 2.73.44 4.08.44 4.04 0 7.12-1.42 9.24-4.25Zm-27.34-23.1c0-3.36-.12-7.05-.34-11.07h9.77a48 48 0 0 1 .76 5.74c4.04-4.38 8.67-6.58 13.9-6.58 3.02 0 5.83.76 8.41 2.28 2.58 1.53 4.67 3.93 6.26 7.21 1.58 3.28 2.38 7.45 2.38 12.5 0 5.29-.91 9.8-2.72 13.54a19.38 19.38 0 0 1-7.6 8.5 21.75 21.75 0 0 1-11.29 2.9c-3.08 0-6.13-.52-9.13-1.55v18.68l-10.4.88v-53.04ZM412.6 181.74a25.16 25.16 0 0 1-10.36-10.63c-2.41-4.6-3.62-10.05-3.62-16.33 0-6.82 1.39-12.6 4.17-17.37a26.77 26.77 0 0 1 11.35-10.72 35.58 35.58 0 0 1 16.1-3.59 42.74 42.74 0 0 1 18.95 4.32l-2.65 7.96c-5.53-2.63-10.8-3.94-15.83-3.94-4.24 0-7.95.9-11.14 2.7a18.4 18.4 0 0 0-7.43 7.94c-1.77 3.5-2.65 7.71-2.65 12.65 0 4.33.68 8.17 2.03 11.53 1.37 3.35 3.52 6 6.45 7.96 2.93 1.95 6.63 2.93 11.1 2.93 2.01 0 4.04-.17 6.06-.5 2.02-.34 3.91-.83 5.68-1.47V162.9h-14.1v-8.04h24.2v25.56a54.3 54.3 0 0 1-22.4 5.02c-6.11 0-11.42-1.23-15.91-3.7ZM481.65 176.23a16.64 16.64 0 0 0 5.3-3.86V164c-2.83-.3-5.15-.46-6.95-.46-4.3 0-7.26.7-8.9 2.08a6.92 6.92 0 0 0-2.47 5.59c0 2.24.6 3.89 1.8 4.96 1.19 1.08 2.8 1.62 4.86 1.62 2.07 0 4.2-.52 6.36-1.55Zm6.23 8.38c-.37-1.77-.6-3.76-.72-6a20.08 20.08 0 0 1-6.25 4.84 18.66 18.66 0 0 1-8.7 2c-2.6 0-4.99-.52-7.14-1.54a11.88 11.88 0 0 1-5.11-4.6 14.08 14.08 0 0 1-1.9-7.53c0-4.38 1.59-7.88 4.76-10.49 3.18-2.61 8.47-3.92 15.88-3.92 2.78 0 5.53.2 8.25.59v-.88c0-4-.86-6.8-2.57-8.44-1.71-1.63-4.17-2.45-7.37-2.45-2.21 0-4.59.32-7.11.96a37.66 37.66 0 0 0-6.66 2.3l-1.64-7.54c1.85-.83 4.3-1.6 7.33-2.3 3.03-.7 6.23-1.05 9.6-1.05 3.93 0 7.27.6 10.02 1.78a13.12 13.12 0 0 1 6.44 6.12c1.55 2.9 2.32 6.78 2.32 11.67v17.97c0 1.87.11 4.7.33 8.5h-9.76ZM505.29 173.75v-53.41l10.36-.84v52.41c0 1.93.33 3.29.99 4.09.65.8 1.7 1.2 3.13 1.2.65 0 1.56-.16 2.74-.47l1.22 7.42c-.98.39-2.18.7-3.6.94-1.42.23-2.76.35-4.02.35-7.22 0-10.82-3.9-10.82-11.69ZM531.18 173.75v-53.41l10.36-.84v52.41c0 1.93.33 3.29 1 4.09.65.8 1.7 1.2 3.13 1.2.64 0 1.56-.16 2.74-.47l1.22 7.42c-.99.39-2.19.7-3.6.94-1.42.23-2.76.35-4.02.35-7.22 0-10.83-3.9-10.83-11.69ZM582.09 156.75c-.21-3.6-1.12-6.31-2.75-8.11-1.62-1.8-3.8-2.7-6.52-2.7-2.64 0-4.84.9-6.6 2.72-1.74 1.82-2.9 4.51-3.43 8.09h19.3Zm10.13 6.57H562.5c.47 9.47 5 14.2 13.6 14.2 2.13 0 4.32-.25 6.55-.77 2.23-.52 4.37-1.2 6.42-2.07l2.28 7.08c-5.1 2.46-10.8 3.68-17.14 3.68-4.84 0-8.9-.9-12.21-2.72a17.46 17.46 0 0 1-7.48-7.84c-1.67-3.4-2.5-7.5-2.5-12.31 0-5 .88-9.3 2.65-12.9a19.22 19.22 0 0 1 7.39-8.26c3.15-1.9 6.8-2.85 10.93-2.85 4.3 0 7.87 1 10.75 3s5 4.66 6.4 7.98c1.39 3.32 2.09 7 2.09 11.02v2.76ZM600.1 150.75c0-2.48-.13-6.26-.35-11.35h9.74a132.06 132.06 0 0 1 .79 8.76 38.03 38.03 0 0 1 3.56-5 14.63 14.63 0 0 1 4.09-3.32 10.9 10.9 0 0 1 5.33-1.28c1.6 0 2.96.17 4.11.5l-1.3 8.97c-1-.3-2.13-.46-3.37-.46-2.44 0-4.58.62-6.4 1.87-1.82 1.24-3.77 3.28-5.85 6.13v29.03H600.1v-33.85ZM633.21 203.1a25.08 25.08 0 0 1-3.74-.9l1.9-7.54c.69.2 1.58.38 2.65.57 1.06.18 2.07.27 3.03.27 4.6 0 8.06-2.95 10.35-8.84l.68-1.68-16.76-45.58h11.16l8.43 25.47a82.69 82.69 0 0 1 2.64 10.01c.8-3.26 1.71-6.53 2.78-9.8l8.55-25.68h10.48l-16.7 45.8a47.02 47.02 0 0 1-5.11 10.47 17.84 17.84 0 0 1-6.45 5.9c-2.5 1.29-5.49 1.93-9 1.93-1.74 0-3.37-.13-4.89-.4Z" mask="url(#path-2-inside-1_1_95)"/><mask id="path-3-inside-2_1_95" fill="#fff"><path d="M242.05 67.9h17.2l-.5 4.16H247.1v8.04h11V84h-11v8.9h12.3l-.43 4.2h-16.91V67.9ZM271.1 82.2l-9.08-14.3h5.73l6.14 10.5 6.48-10.5h5.56l-9 14.12 9.74 15.08h-5.8l-6.95-11.5-7.08 11.5h-5.56l9.81-14.9ZM303.02 80.94c1.07-.98 1.61-2.35 1.61-4.13 0-1.8-.55-3.1-1.64-3.89-1.1-.79-2.7-1.19-4.83-1.19h-2.74V82.1c1.26.2 2.23.3 2.9.3 2.06 0 3.62-.49 4.7-1.46ZM290.38 67.9h7.86c3.7 0 6.53.76 8.49 2.26 1.96 1.5 2.94 3.68 2.94 6.53 0 1.94-.44 3.63-1.32 5.07a8.69 8.69 0 0 1-3.68 3.33 12.11 12.11 0 0 1-5.42 1.16c-1.12 0-2.4-.13-3.83-.4V97.1h-5.04V67.9ZM314.65 67.9h5.04v24.88h12.07l-.42 4.32h-16.7V67.9ZM352.48 92.09a8.6 8.6 0 0 0 3.16-3.91c.7-1.66 1.05-3.56 1.05-5.7 0-2.1-.3-3.96-.92-5.6a8.32 8.32 0 0 0-2.97-3.93 8.77 8.77 0 0 0-5.24-1.46 8.9 8.9 0 0 0-5.2 1.48 9.07 9.07 0 0 0-3.2 3.98 13.8 13.8 0 0 0-1.07 5.49c0 2.11.34 4 1 5.66a8.61 8.61 0 0 0 3.1 3.96 8.74 8.74 0 0 0 5.13 1.45c2.03 0 3.75-.48 5.16-1.42Zm-13.06 3.58a12.2 12.2 0 0 1-4.9-5.16 16.73 16.73 0 0 1-1.69-7.7c0-3.08.6-5.78 1.8-8.08a12.7 12.7 0 0 1 5.2-5.34 16.26 16.26 0 0 1 8.02-1.89c2.94 0 5.47.6 7.6 1.82a12.07 12.07 0 0 1 4.85 5.14 16.75 16.75 0 0 1 1.67 7.66c0 3.13-.6 5.85-1.82 8.16a12.77 12.77 0 0 1-5.2 5.34 16.07 16.07 0 0 1-7.93 1.88c-2.93 0-5.46-.61-7.6-1.83ZM375.5 81.71c1.22 0 2.3-.23 3.24-.71a5.3 5.3 0 0 0 2.2-2.02 5.7 5.7 0 0 0 .79-3.01c0-1.47-.47-2.54-1.4-3.22-.92-.68-2.27-1.02-4.05-1.02h-3.64v9.98h2.86Zm-7.9-13.8h9.13c3.33 0 5.85.66 7.57 1.99 1.7 1.33 2.57 3.23 2.57 5.7 0 1.55-.31 2.91-.93 4.09a9.02 9.02 0 0 1-2.3 2.87c-.91.74-1.85 1.3-2.82 1.65l8.97 12.89h-5.85l-7.6-11.58h-3.7V97.1h-5.04V67.9ZM393.78 67.9h17.2l-.5 4.16h-11.66v8.04h11V84h-11v8.9h12.3l-.43 4.2h-16.91V67.9ZM429.68 67.9h5.03v29.2h-5.03V67.9ZM448.04 72.12h-9.05l.44-4.22h22.72l-.47 4.22h-8.6V97.1h-5.04V72.12ZM497.08 92.09a8.6 8.6 0 0 0 3.16-3.91c.7-1.66 1.05-3.56 1.05-5.7 0-2.1-.31-3.96-.93-5.6a8.33 8.33 0 0 0-2.96-3.93 8.78 8.78 0 0 0-5.24-1.46 8.9 8.9 0 0 0-5.2 1.48 9.06 9.06 0 0 0-3.2 3.98 13.78 13.78 0 0 0-1.08 5.49c0 2.11.34 4 1.01 5.66a8.61 8.61 0 0 0 3.09 3.96 8.75 8.75 0 0 0 5.14 1.45c2.02 0 3.75-.48 5.16-1.42Zm-13.06 3.58a12.2 12.2 0 0 1-4.9-5.16 16.73 16.73 0 0 1-1.7-7.7c0-3.08.6-5.78 1.8-8.08a12.7 12.7 0 0 1 5.2-5.34 16.26 16.26 0 0 1 8.02-1.89c2.94 0 5.47.6 7.6 1.82a12.08 12.08 0 0 1 4.86 5.14 16.77 16.77 0 0 1 1.67 7.66c0 3.13-.61 5.85-1.82 8.16a12.8 12.8 0 0 1-5.2 5.34 16.08 16.08 0 0 1-7.94 1.88c-2.93 0-5.46-.61-7.6-1.83ZM512.2 67.9h5.78l14.43 22.62a99.22 99.22 0 0 1-.18-5.94V67.9h4.67v29.2h-5.6L516.65 74.1c.14 2.61.22 4.92.22 6.94V97.1h-4.68V67.9Z"/></mask><path fill="#5F6368" d="M242.05 67.9h17.2l-.5 4.16H247.1v8.04h11V84h-11v8.9h12.3l-.43 4.2h-16.91V67.9ZM271.1 82.2l-9.08-14.3h5.73l6.14 10.5 6.48-10.5h5.56l-9 14.12 9.74 15.08h-5.8l-6.95-11.5-7.08 11.5h-5.56l9.81-14.9ZM303.02 80.94c1.07-.98 1.61-2.35 1.61-4.13 0-1.8-.55-3.1-1.64-3.89-1.1-.79-2.7-1.19-4.83-1.19h-2.74V82.1c1.26.2 2.23.3 2.9.3 2.06 0 3.62-.49 4.7-1.46ZM290.38 67.9h7.86c3.7 0 6.53.76 8.49 2.26 1.96 1.5 2.94 3.68 2.94 6.53 0 1.94-.44 3.63-1.32 5.07a8.69 8.69 0 0 1-3.68 3.33 12.11 12.11 0 0 1-5.42 1.16c-1.12 0-2.4-.13-3.83-.4V97.1h-5.04V67.9ZM314.65 67.9h5.04v24.88h12.07l-.42 4.32h-16.7V67.9ZM352.48 92.09a8.6 8.6 0 0 0 3.16-3.91c.7-1.66 1.05-3.56 1.05-5.7 0-2.1-.3-3.96-.92-5.6a8.32 8.32 0 0 0-2.97-3.93 8.77 8.77 0 0 0-5.24-1.46 8.9 8.9 0 0 0-5.2 1.48 9.07 9.07 0 0 0-3.2 3.98 13.8 13.8 0 0 0-1.07 5.49c0 2.11.34 4 1 5.66a8.61 8.61 0 0 0 3.1 3.96 8.74 8.74 0 0 0 5.13 1.45c2.03 0 3.75-.48 5.16-1.42Zm-13.06 3.58a12.2 12.2 0 0 1-4.9-5.16 16.73 16.73 0 0 1-1.69-7.7c0-3.08.6-5.78 1.8-8.08a12.7 12.7 0 0 1 5.2-5.34 16.26 16.26 0 0 1 8.02-1.89c2.94 0 5.47.6 7.6 1.82a12.07 12.07 0 0 1 4.85 5.14 16.75 16.75 0 0 1 1.67 7.66c0 3.13-.6 5.85-1.82 8.16a12.77 12.77 0 0 1-5.2 5.34 16.07 16.07 0 0 1-7.93 1.88c-2.93 0-5.46-.61-7.6-1.83ZM375.5 81.71c1.22 0 2.3-.23 3.24-.71a5.3 5.3 0 0 0 2.2-2.02 5.7 5.7 0 0 0 .79-3.01c0-1.47-.47-2.54-1.4-3.22-.92-.68-2.27-1.02-4.05-1.02h-3.64v9.98h2.86Zm-7.9-13.8h9.13c3.33 0 5.85.66 7.57 1.99 1.7 1.33 2.57 3.23 2.57 5.7 0 1.55-.31 2.91-.93 4.09a9.02 9.02 0 0 1-2.3 2.87c-.91.74-1.85 1.3-2.82 1.65l8.97 12.89h-5.85l-7.6-11.58h-3.7V97.1h-5.04V67.9ZM393.78 67.9h17.2l-.5 4.16h-11.66v8.04h11V84h-11v8.9h12.3l-.43 4.2h-16.91V67.9ZM429.68 67.9h5.03v29.2h-5.03V67.9ZM448.04 72.12h-9.05l.44-4.22h22.72l-.47 4.22h-8.6V97.1h-5.04V72.12ZM497.08 92.09a8.6 8.6 0 0 0 3.16-3.91c.7-1.66 1.05-3.56 1.05-5.7 0-2.1-.31-3.96-.93-5.6a8.33 8.33 0 0 0-2.96-3.93 8.78 8.78 0 0 0-5.24-1.46 8.9 8.9 0 0 0-5.2 1.48 9.06 9.06 0 0 0-3.2 3.98 13.78 13.78 0 0 0-1.08 5.49c0 2.11.34 4 1.01 5.66a8.61 8.61 0 0 0 3.09 3.96 8.75 8.75 0 0 0 5.14 1.45c2.02 0 3.75-.48 5.16-1.42Zm-13.06 3.58a12.2 12.2 0 0 1-4.9-5.16 16.73 16.73 0 0 1-1.7-7.7c0-3.08.6-5.78 1.8-8.08a12.7 12.7 0 0 1 5.2-5.34 16.26 16.26 0 0 1 8.02-1.89c2.94 0 5.47.6 7.6 1.82a12.08 12.08 0 0 1 4.86 5.14 16.77 16.77 0 0 1 1.67 7.66c0 3.13-.61 5.85-1.82 8.16a12.8 12.8 0 0 1-5.2 5.34 16.08 16.08 0 0 1-7.94 1.88c-2.93 0-5.46-.61-7.6-1.83ZM512.2 67.9h5.78l14.43 22.62a99.22 99.22 0 0 1-.18-5.94V67.9h4.67v29.2h-5.6L516.65 74.1c.14 2.61.22 4.92.22 6.94V97.1h-4.68V67.9Z"/><path stroke="#5F6368" stroke-width="1.29" d="M242.05 67.9h17.2l-.5 4.16H247.1v8.04h11V84h-11v8.9h12.3l-.43 4.2h-16.91V67.9ZM271.1 82.2l-9.08-14.3h5.73l6.14 10.5 6.48-10.5h5.56l-9 14.12 9.74 15.08h-5.8l-6.95-11.5-7.08 11.5h-5.56l9.81-14.9ZM303.02 80.94c1.07-.98 1.61-2.35 1.61-4.13 0-1.8-.55-3.1-1.64-3.89-1.1-.79-2.7-1.19-4.83-1.19h-2.74V82.1c1.26.2 2.23.3 2.9.3 2.06 0 3.62-.49 4.7-1.46ZM290.38 67.9h7.86c3.7 0 6.53.76 8.49 2.26 1.96 1.5 2.94 3.68 2.94 6.53 0 1.94-.44 3.63-1.32 5.07a8.69 8.69 0 0 1-3.68 3.33 12.11 12.11 0 0 1-5.42 1.16c-1.12 0-2.4-.13-3.83-.4V97.1h-5.04V67.9ZM314.65 67.9h5.04v24.88h12.07l-.42 4.32h-16.7V67.9ZM352.48 92.09a8.6 8.6 0 0 0 3.16-3.91c.7-1.66 1.05-3.56 1.05-5.7 0-2.1-.3-3.96-.92-5.6a8.32 8.32 0 0 0-2.97-3.93 8.77 8.77 0 0 0-5.24-1.46 8.9 8.9 0 0 0-5.2 1.48 9.07 9.07 0 0 0-3.2 3.98 13.8 13.8 0 0 0-1.07 5.49c0 2.11.34 4 1 5.66a8.61 8.61 0 0 0 3.1 3.96 8.74 8.74 0 0 0 5.13 1.45c2.03 0 3.75-.48 5.16-1.42Zm-13.06 3.58a12.2 12.2 0 0 1-4.9-5.16 16.73 16.73 0 0 1-1.69-7.7c0-3.08.6-5.78 1.8-8.08a12.7 12.7 0 0 1 5.2-5.34 16.26 16.26 0 0 1 8.02-1.89c2.94 0 5.47.6 7.6 1.82a12.07 12.07 0 0 1 4.85 5.14 16.75 16.75 0 0 1 1.67 7.66c0 3.13-.6 5.85-1.82 8.16a12.77 12.77 0 0 1-5.2 5.34 16.07 16.07 0 0 1-7.93 1.88c-2.93 0-5.46-.61-7.6-1.83ZM375.5 81.71c1.22 0 2.3-.23 3.24-.71a5.3 5.3 0 0 0 2.2-2.02 5.7 5.7 0 0 0 .79-3.01c0-1.47-.47-2.54-1.4-3.22-.92-.68-2.27-1.02-4.05-1.02h-3.64v9.98h2.86Zm-7.9-13.8h9.13c3.33 0 5.85.66 7.57 1.99 1.7 1.33 2.57 3.23 2.57 5.7 0 1.55-.31 2.91-.93 4.09a9.02 9.02 0 0 1-2.3 2.87c-.91.74-1.85 1.3-2.82 1.65l8.97 12.89h-5.85l-7.6-11.58h-3.7V97.1h-5.04V67.9ZM393.78 67.9h17.2l-.5 4.16h-11.66v8.04h11V84h-11v8.9h12.3l-.43 4.2h-16.91V67.9ZM429.68 67.9h5.03v29.2h-5.03V67.9ZM448.04 72.12h-9.05l.44-4.22h22.72l-.47 4.22h-8.6V97.1h-5.04V72.12ZM497.08 92.09a8.6 8.6 0 0 0 3.16-3.91c.7-1.66 1.05-3.56 1.05-5.7 0-2.1-.31-3.96-.93-5.6a8.33 8.33 0 0 0-2.96-3.93 8.78 8.78 0 0 0-5.24-1.46 8.9 8.9 0 0 0-5.2 1.48 9.06 9.06 0 0 0-3.2 3.98 13.78 13.78 0 0 0-1.08 5.49c0 2.11.34 4 1.01 5.66a8.61 8.61 0 0 0 3.09 3.96 8.75 8.75 0 0 0 5.14 1.45c2.02 0 3.75-.48 5.16-1.42Zm-13.06 3.58a12.2 12.2 0 0 1-4.9-5.16 16.73 16.73 0 0 1-1.7-7.7c0-3.08.6-5.78 1.8-8.08a12.7 12.7 0 0 1 5.2-5.34 16.26 16.26 0 0 1 8.02-1.89c2.94 0 5.47.6 7.6 1.82a12.08 12.08 0 0 1 4.86 5.14 16.77 16.77 0 0 1 1.67 7.66c0 3.13-.61 5.85-1.82 8.16a12.8 12.8 0 0 1-5.2 5.34 16.08 16.08 0 0 1-7.94 1.88c-2.93 0-5.46-.61-7.6-1.83ZM512.2 67.9h5.78l14.43 22.62a99.22 99.22 0 0 1-.18-5.94V67.9h4.67v29.2h-5.6L516.65 74.1c.14 2.61.22 4.92.22 6.94V97.1h-4.68V67.9Z" mask="url(#path-3-inside-2_1_95)"/><path fill="#C91C2E" fill-rule="evenodd" d="M172.21 68h-60.55c-28.52 0-38.95 10.17-38.95 37.98v59.04c0 27.8 10.43 37.98 38.95 37.98h60.53c28.52 0 38.98-10.17 38.98-37.98v-59.04c0-27.8-10.44-37.98-38.96-37.98Z" clip-rule="evenodd"/><path fill="#fff" d="M134.3 144.74h5.4l-2.7-6.31-2.7 6.31Zm-1.32 3.19-1.6 3.67h-3.64l7.74-17.64h3.15l7.72 17.64h-3.74l-1.58-3.67h-8.05Zm58.62 3.66h3.52v-17.63h-3.52v17.63ZM177.6 144h6.49v-3.21h-6.5v-3.62h9.43v-3.21h-12.94v17.63h13.28v-3.22h-9.76v-4.37Zm-14 2.09-3.98-12.14h-2.92l-3.99 12.14-3.88-12.14h-3.8l6.13 17.65h2.95l4-11.6 4 11.6h2.98l6.11-17.65h-3.7l-3.9 12.14Zm-41.23-2.04c0 2.87-1.42 4.4-4 4.4-2.59 0-4.02-1.57-4.02-4.52v-9.97h-3.56v10.1c0 4.96 2.74 7.8 7.53 7.8 4.84 0 7.62-2.9 7.62-7.96v-9.95h-3.57v10.1Zm-20.1-10.1h3.57v17.65h-3.57v-7.17H94.2v7.17h-3.56v-17.65h3.56v7.12h8.06v-7.12ZM142.88 111.48A22.46 22.46 0 0 1 120.5 89h3.16c0 10.64 8.63 19.3 19.23 19.3s19.23-8.66 19.23-19.3h3.16a22.46 22.46 0 0 1-22.39 22.48Z"/></svg>